G04 #@! TF.GenerationSoftware,KiCad,Pcbnew,(6.0.10)*
G04 #@! TF.CreationDate,2023-06-12T15:34:31-04:00*
G04 #@! TF.ProjectId,esp32_dev_board,65737033-325f-4646-9576-5f626f617264,rev?*
G04 #@! TF.SameCoordinates,Original*
G04 #@! TF.FileFunction,Legend,Top*
G04 #@! TF.FilePolarity,Positive*
%FSLAX46Y46*%
G04 Gerber Fmt 4.6, Leading zero omitted, Abs format (unit mm)*
G04 Created by KiCad (PCBNEW (6.0.10)) date 2023-06-12 15:34:31*
%MOMM*%
%LPD*%
G01*
G04 APERTURE LIST*
G04 Aperture macros list*
%AMRoundRect*
0 Rectangle with rounded corners*
0 $1 Rounding radius*
0 $2 $3 $4 $5 $6 $7 $8 $9 X,Y pos of 4 corners*
0 Add a 4 corners polygon primitive as box body*
4,1,4,$2,$3,$4,$5,$6,$7,$8,$9,$2,$3,0*
0 Add four circle primitives for the rounded corners*
1,1,$1+$1,$2,$3*
1,1,$1+$1,$4,$5*
1,1,$1+$1,$6,$7*
1,1,$1+$1,$8,$9*
0 Add four rect primitives between the rounded corners*
20,1,$1+$1,$2,$3,$4,$5,0*
20,1,$1+$1,$4,$5,$6,$7,0*
20,1,$1+$1,$6,$7,$8,$9,0*
20,1,$1+$1,$8,$9,$2,$3,0*%
G04 Aperture macros list end*
%ADD10C,0.100000*%
%ADD11C,0.150000*%
%ADD12C,0.120000*%
%ADD13RoundRect,0.250000X-0.475000X0.337500X-0.475000X-0.337500X0.475000X-0.337500X0.475000X0.337500X0*%
%ADD14RoundRect,0.250000X0.325000X0.450000X-0.325000X0.450000X-0.325000X-0.450000X0.325000X-0.450000X0*%
%ADD15R,1.700000X1.700000*%
%ADD16O,1.700000X1.700000*%
%ADD17RoundRect,0.250000X0.450000X-0.350000X0.450000X0.350000X-0.450000X0.350000X-0.450000X-0.350000X0*%
%ADD18R,1.500000X0.900000*%
%ADD19R,0.900000X1.500000*%
%ADD20R,4.200000X4.200000*%
%ADD21R,1.500000X0.400000*%
%ADD22RoundRect,0.250000X-0.350000X-0.450000X0.350000X-0.450000X0.350000X0.450000X-0.350000X0.450000X0*%
%ADD23RoundRect,0.250000X0.350000X0.450000X-0.350000X0.450000X-0.350000X-0.450000X0.350000X-0.450000X0*%
%ADD24RoundRect,0.150000X-0.150000X0.512500X-0.150000X-0.512500X0.150000X-0.512500X0.150000X0.512500X0*%
%ADD25RoundRect,0.250000X0.337500X0.475000X-0.337500X0.475000X-0.337500X-0.475000X0.337500X-0.475000X0*%
%ADD26R,0.400000X1.400000*%
%ADD27R,1.750000X1.900000*%
%ADD28O,1.050000X1.900000*%
%ADD29R,1.150000X1.450000*%
%ADD30RoundRect,0.150000X-0.150000X0.587500X-0.150000X-0.587500X0.150000X-0.587500X0.150000X0.587500X0*%
%ADD31R,0.900000X1.200000*%
%ADD32RoundRect,0.250000X-0.450000X0.350000X-0.450000X-0.350000X0.450000X-0.350000X0.450000X0.350000X0*%
%ADD33R,1.200000X0.400000*%
%ADD34R,1.250000X1.000000*%
G04 APERTURE END LIST*
D10*
X156975000Y-115716666D02*
X157308333Y-115716666D01*
X156908333Y-115916666D02*
X157141666Y-115216666D01*
X157375000Y-115916666D01*
X157908333Y-115450000D02*
X157908333Y-115916666D01*
X157741666Y-115183333D02*
X157575000Y-115683333D01*
X158008333Y-115683333D01*
X157025000Y-118466666D02*
X156791666Y-118133333D01*
X156625000Y-118466666D02*
X156625000Y-117766666D01*
X156891666Y-117766666D01*
X156958333Y-117800000D01*
X156991666Y-117833333D01*
X157025000Y-117900000D01*
X157025000Y-118000000D01*
X156991666Y-118066666D01*
X156958333Y-118100000D01*
X156891666Y-118133333D01*
X156625000Y-118133333D01*
X157258333Y-117766666D02*
X157725000Y-118466666D01*
X157725000Y-117766666D02*
X157258333Y-118466666D01*
X157958333Y-117833333D02*
X157991666Y-117800000D01*
X158058333Y-117766666D01*
X158225000Y-117766666D01*
X158291666Y-117800000D01*
X158325000Y-117833333D01*
X158358333Y-117900000D01*
X158358333Y-117966666D01*
X158325000Y-118066666D01*
X157925000Y-118466666D01*
X158358333Y-118466666D01*
X179840000Y-133491666D02*
X180173333Y-133491666D01*
X179773333Y-133691666D02*
X180006666Y-132991666D01*
X180240000Y-133691666D01*
X180440000Y-133058333D02*
X180473333Y-133025000D01*
X180540000Y-132991666D01*
X180706666Y-132991666D01*
X180773333Y-133025000D01*
X180806666Y-133058333D01*
X180840000Y-133125000D01*
X180840000Y-133191666D01*
X180806666Y-133291666D01*
X180406666Y-133691666D01*
X180840000Y-133691666D01*
X179133333Y-110841666D02*
X179133333Y-110141666D01*
X179366666Y-110641666D01*
X179600000Y-110141666D01*
X179600000Y-110841666D01*
X179833333Y-110141666D02*
X180233333Y-110141666D01*
X180033333Y-110841666D02*
X180033333Y-110141666D01*
X180466666Y-110841666D02*
X180466666Y-110141666D01*
X180633333Y-110141666D01*
X180733333Y-110175000D01*
X180800000Y-110241666D01*
X180833333Y-110308333D01*
X180866666Y-110441666D01*
X180866666Y-110541666D01*
X180833333Y-110675000D01*
X180800000Y-110741666D01*
X180733333Y-110808333D01*
X180633333Y-110841666D01*
X180466666Y-110841666D01*
X181300000Y-110141666D02*
X181433333Y-110141666D01*
X181500000Y-110175000D01*
X181566666Y-110241666D01*
X181600000Y-110375000D01*
X181600000Y-110608333D01*
X181566666Y-110741666D01*
X181500000Y-110808333D01*
X181433333Y-110841666D01*
X181300000Y-110841666D01*
X181233333Y-110808333D01*
X181166666Y-110741666D01*
X181133333Y-110608333D01*
X181133333Y-110375000D01*
X181166666Y-110241666D01*
X181233333Y-110175000D01*
X181300000Y-110141666D01*
X178800000Y-135975000D02*
X179333333Y-135975000D01*
X179066666Y-136241666D02*
X179066666Y-135708333D01*
X179600000Y-135541666D02*
X180033333Y-135541666D01*
X179800000Y-135808333D01*
X179900000Y-135808333D01*
X179966666Y-135841666D01*
X180000000Y-135875000D01*
X180033333Y-135941666D01*
X180033333Y-136108333D01*
X180000000Y-136175000D01*
X179966666Y-136208333D01*
X179900000Y-136241666D01*
X179700000Y-136241666D01*
X179633333Y-136208333D01*
X179600000Y-136175000D01*
X180333333Y-136175000D02*
X180366666Y-136208333D01*
X180333333Y-136241666D01*
X180300000Y-136208333D01*
X180333333Y-136175000D01*
X180333333Y-136241666D01*
X180600000Y-135541666D02*
X181033333Y-135541666D01*
X180800000Y-135808333D01*
X180900000Y-135808333D01*
X180966666Y-135841666D01*
X181000000Y-135875000D01*
X181033333Y-135941666D01*
X181033333Y-136108333D01*
X181000000Y-136175000D01*
X180966666Y-136208333D01*
X180900000Y-136241666D01*
X180700000Y-136241666D01*
X180633333Y-136208333D01*
X180600000Y-136175000D01*
X181233333Y-135541666D02*
X181466666Y-136241666D01*
X181700000Y-135541666D01*
X179840000Y-125891666D02*
X180173333Y-125891666D01*
X179773333Y-126091666D02*
X180006666Y-125391666D01*
X180240000Y-126091666D01*
X180840000Y-126091666D02*
X180440000Y-126091666D01*
X180640000Y-126091666D02*
X180640000Y-125391666D01*
X180573333Y-125491666D01*
X180506666Y-125558333D01*
X180440000Y-125591666D01*
X156975000Y-113191666D02*
X157308333Y-113191666D01*
X156908333Y-113391666D02*
X157141666Y-112691666D01*
X157375000Y-113391666D01*
X157541666Y-112691666D02*
X157975000Y-112691666D01*
X157741666Y-112958333D01*
X157841666Y-112958333D01*
X157908333Y-112991666D01*
X157941666Y-113025000D01*
X157975000Y-113091666D01*
X157975000Y-113258333D01*
X157941666Y-113325000D01*
X157908333Y-113358333D01*
X157841666Y-113391666D01*
X157641666Y-113391666D01*
X157575000Y-113358333D01*
X157541666Y-113325000D01*
X156708333Y-110141666D02*
X156941666Y-110841666D01*
X157175000Y-110141666D01*
X157408333Y-110841666D02*
X157408333Y-110141666D01*
X157741666Y-110841666D02*
X157741666Y-110141666D01*
X158141666Y-110841666D01*
X158141666Y-110141666D01*
X179089200Y-113397466D02*
X179089200Y-112697466D01*
X179322533Y-113197466D01*
X179555866Y-112697466D01*
X179555866Y-113397466D01*
X179789200Y-112697466D02*
X180189200Y-112697466D01*
X179989200Y-113397466D02*
X179989200Y-112697466D01*
X180822533Y-113330800D02*
X180789200Y-113364133D01*
X180689200Y-113397466D01*
X180622533Y-113397466D01*
X180522533Y-113364133D01*
X180455866Y-113297466D01*
X180422533Y-113230800D01*
X180389200Y-113097466D01*
X180389200Y-112997466D01*
X180422533Y-112864133D01*
X180455866Y-112797466D01*
X180522533Y-112730800D01*
X180622533Y-112697466D01*
X180689200Y-112697466D01*
X180789200Y-112730800D01*
X180822533Y-112764133D01*
X181122533Y-113397466D02*
X181122533Y-112697466D01*
X181522533Y-113397466D02*
X181222533Y-112997466D01*
X181522533Y-112697466D02*
X181122533Y-113097466D01*
X179816666Y-120383333D02*
X179850000Y-120350000D01*
X179916666Y-120316666D01*
X180083333Y-120316666D01*
X180150000Y-120350000D01*
X180183333Y-120383333D01*
X180216666Y-120450000D01*
X180216666Y-120516666D01*
X180183333Y-120616666D01*
X179783333Y-121016666D01*
X180216666Y-121016666D01*
X180450000Y-120316666D02*
X180916666Y-120316666D01*
X180616666Y-121016666D01*
X156375000Y-126091666D02*
X156375000Y-125391666D01*
X156608333Y-125891666D01*
X156841666Y-125391666D01*
X156841666Y-126091666D01*
X157308333Y-125391666D02*
X157441666Y-125391666D01*
X157508333Y-125425000D01*
X157575000Y-125491666D01*
X157608333Y-125625000D01*
X157608333Y-125858333D01*
X157575000Y-125991666D01*
X157508333Y-126058333D01*
X157441666Y-126091666D01*
X157308333Y-126091666D01*
X157241666Y-126058333D01*
X157175000Y-125991666D01*
X157141666Y-125858333D01*
X157141666Y-125625000D01*
X157175000Y-125491666D01*
X157241666Y-125425000D01*
X157308333Y-125391666D01*
X157875000Y-126058333D02*
X157975000Y-126091666D01*
X158141666Y-126091666D01*
X158208333Y-126058333D01*
X158241666Y-126025000D01*
X158275000Y-125958333D01*
X158275000Y-125891666D01*
X158241666Y-125825000D01*
X158208333Y-125791666D01*
X158141666Y-125758333D01*
X158008333Y-125725000D01*
X157941666Y-125691666D01*
X157908333Y-125658333D01*
X157875000Y-125591666D01*
X157875000Y-125525000D01*
X157908333Y-125458333D01*
X157941666Y-125425000D01*
X158008333Y-125391666D01*
X158175000Y-125391666D01*
X158275000Y-125425000D01*
X158575000Y-126091666D02*
X158575000Y-125391666D01*
X179333333Y-115941666D02*
X179333333Y-115241666D01*
X179566666Y-115741666D01*
X179800000Y-115241666D01*
X179800000Y-115941666D01*
X180033333Y-115241666D02*
X180433333Y-115241666D01*
X180233333Y-115941666D02*
X180233333Y-115241666D01*
X180666666Y-115941666D02*
X180666666Y-115241666D01*
X180833333Y-115241666D01*
X180933333Y-115275000D01*
X181000000Y-115341666D01*
X181033333Y-115408333D01*
X181066666Y-115541666D01*
X181066666Y-115641666D01*
X181033333Y-115775000D01*
X181000000Y-115841666D01*
X180933333Y-115908333D01*
X180833333Y-115941666D01*
X180666666Y-115941666D01*
X181366666Y-115941666D02*
X181366666Y-115241666D01*
X179116666Y-118466666D02*
X179116666Y-117766666D01*
X179350000Y-118266666D01*
X179583333Y-117766666D01*
X179583333Y-118466666D01*
X179816666Y-117766666D02*
X180216666Y-117766666D01*
X180016666Y-118466666D02*
X180016666Y-117766666D01*
X180450000Y-118466666D02*
X180450000Y-117766666D01*
X180683333Y-118266666D01*
X180916666Y-117766666D01*
X180916666Y-118466666D01*
X181216666Y-118433333D02*
X181316666Y-118466666D01*
X181483333Y-118466666D01*
X181550000Y-118433333D01*
X181583333Y-118400000D01*
X181616666Y-118333333D01*
X181616666Y-118266666D01*
X181583333Y-118200000D01*
X181550000Y-118166666D01*
X181483333Y-118133333D01*
X181350000Y-118100000D01*
X181283333Y-118066666D01*
X181250000Y-118033333D01*
X181216666Y-117966666D01*
X181216666Y-117900000D01*
X181250000Y-117833333D01*
X181283333Y-117800000D01*
X181350000Y-117766666D01*
X181516666Y-117766666D01*
X181616666Y-117800000D01*
X156375000Y-128616666D02*
X156375000Y-127916666D01*
X156608333Y-128416666D01*
X156841666Y-127916666D01*
X156841666Y-128616666D01*
X157175000Y-128616666D02*
X157175000Y-127916666D01*
X157475000Y-128583333D02*
X157575000Y-128616666D01*
X157741666Y-128616666D01*
X157808333Y-128583333D01*
X157841666Y-128550000D01*
X157875000Y-128483333D01*
X157875000Y-128416666D01*
X157841666Y-128350000D01*
X157808333Y-128316666D01*
X157741666Y-128283333D01*
X157608333Y-128250000D01*
X157541666Y-128216666D01*
X157508333Y-128183333D01*
X157475000Y-128116666D01*
X157475000Y-128050000D01*
X157508333Y-127983333D01*
X157541666Y-127950000D01*
X157608333Y-127916666D01*
X157775000Y-127916666D01*
X157875000Y-127950000D01*
X158308333Y-127916666D02*
X158441666Y-127916666D01*
X158508333Y-127950000D01*
X158575000Y-128016666D01*
X158608333Y-128150000D01*
X158608333Y-128383333D01*
X158575000Y-128516666D01*
X158508333Y-128583333D01*
X158441666Y-128616666D01*
X158308333Y-128616666D01*
X158241666Y-128583333D01*
X158175000Y-128516666D01*
X158141666Y-128383333D01*
X158141666Y-128150000D01*
X158175000Y-128016666D01*
X158241666Y-127950000D01*
X158308333Y-127916666D01*
X179773333Y-127916666D02*
X180206666Y-127916666D01*
X179973333Y-128183333D01*
X180073333Y-128183333D01*
X180140000Y-128216666D01*
X180173333Y-128250000D01*
X180206666Y-128316666D01*
X180206666Y-128483333D01*
X180173333Y-128550000D01*
X180140000Y-128583333D01*
X180073333Y-128616666D01*
X179873333Y-128616666D01*
X179806666Y-128583333D01*
X179773333Y-128550000D01*
X180440000Y-127916666D02*
X180873333Y-127916666D01*
X180640000Y-128183333D01*
X180740000Y-128183333D01*
X180806666Y-128216666D01*
X180840000Y-128250000D01*
X180873333Y-128316666D01*
X180873333Y-128483333D01*
X180840000Y-128550000D01*
X180806666Y-128583333D01*
X180740000Y-128616666D01*
X180540000Y-128616666D01*
X180473333Y-128583333D01*
X180440000Y-128550000D01*
X179816666Y-138125000D02*
X179750000Y-138091666D01*
X179650000Y-138091666D01*
X179550000Y-138125000D01*
X179483333Y-138191666D01*
X179450000Y-138258333D01*
X179416666Y-138391666D01*
X179416666Y-138491666D01*
X179450000Y-138625000D01*
X179483333Y-138691666D01*
X179550000Y-138758333D01*
X179650000Y-138791666D01*
X179716666Y-138791666D01*
X179816666Y-138758333D01*
X179850000Y-138725000D01*
X179850000Y-138491666D01*
X179716666Y-138491666D01*
X180150000Y-138791666D02*
X180150000Y-138091666D01*
X180550000Y-138791666D01*
X180550000Y-138091666D01*
X180883333Y-138791666D02*
X180883333Y-138091666D01*
X181050000Y-138091666D01*
X181150000Y-138125000D01*
X181216666Y-138191666D01*
X181250000Y-138258333D01*
X181283333Y-138391666D01*
X181283333Y-138491666D01*
X181250000Y-138625000D01*
X181216666Y-138691666D01*
X181150000Y-138758333D01*
X181050000Y-138791666D01*
X180883333Y-138791666D01*
X179773333Y-130466666D02*
X180206666Y-130466666D01*
X179973333Y-130733333D01*
X180073333Y-130733333D01*
X180140000Y-130766666D01*
X180173333Y-130800000D01*
X180206666Y-130866666D01*
X180206666Y-131033333D01*
X180173333Y-131100000D01*
X180140000Y-131133333D01*
X180073333Y-131166666D01*
X179873333Y-131166666D01*
X179806666Y-131133333D01*
X179773333Y-131100000D01*
X180473333Y-130533333D02*
X180506666Y-130500000D01*
X180573333Y-130466666D01*
X180740000Y-130466666D01*
X180806666Y-130500000D01*
X180840000Y-130533333D01*
X180873333Y-130600000D01*
X180873333Y-130666666D01*
X180840000Y-130766666D01*
X180440000Y-131166666D01*
X180873333Y-131166666D01*
X179840000Y-123361666D02*
X180173333Y-123361666D01*
X179773333Y-123561666D02*
X180006666Y-122861666D01*
X180240000Y-123561666D01*
X180606666Y-122861666D02*
X180673333Y-122861666D01*
X180740000Y-122895000D01*
X180773333Y-122928333D01*
X180806666Y-122995000D01*
X180840000Y-123128333D01*
X180840000Y-123295000D01*
X180806666Y-123428333D01*
X180773333Y-123495000D01*
X180740000Y-123528333D01*
X180673333Y-123561666D01*
X180606666Y-123561666D01*
X180540000Y-123528333D01*
X180506666Y-123495000D01*
X180473333Y-123428333D01*
X180440000Y-123295000D01*
X180440000Y-123128333D01*
X180473333Y-122995000D01*
X180506666Y-122928333D01*
X180540000Y-122895000D01*
X180606666Y-122861666D01*
X156625000Y-136208333D02*
X156725000Y-136241666D01*
X156891666Y-136241666D01*
X156958333Y-136208333D01*
X156991666Y-136175000D01*
X157025000Y-136108333D01*
X157025000Y-136041666D01*
X156991666Y-135975000D01*
X156958333Y-135941666D01*
X156891666Y-135908333D01*
X156758333Y-135875000D01*
X156691666Y-135841666D01*
X156658333Y-135808333D01*
X156625000Y-135741666D01*
X156625000Y-135675000D01*
X156658333Y-135608333D01*
X156691666Y-135575000D01*
X156758333Y-135541666D01*
X156925000Y-135541666D01*
X157025000Y-135575000D01*
X157325000Y-136241666D02*
X157325000Y-135541666D01*
X157491666Y-135541666D01*
X157591666Y-135575000D01*
X157658333Y-135641666D01*
X157691666Y-135708333D01*
X157725000Y-135841666D01*
X157725000Y-135941666D01*
X157691666Y-136075000D01*
X157658333Y-136141666D01*
X157591666Y-136208333D01*
X157491666Y-136241666D01*
X157325000Y-136241666D01*
X157991666Y-136041666D02*
X158325000Y-136041666D01*
X157925000Y-136241666D02*
X158158333Y-135541666D01*
X158391666Y-136241666D01*
X156608333Y-120316666D02*
X157008333Y-120316666D01*
X156808333Y-121016666D02*
X156808333Y-120316666D01*
X157175000Y-120316666D02*
X157641666Y-121016666D01*
X157641666Y-120316666D02*
X157175000Y-121016666D01*
X157875000Y-120383333D02*
X157908333Y-120350000D01*
X157975000Y-120316666D01*
X158141666Y-120316666D01*
X158208333Y-120350000D01*
X158241666Y-120383333D01*
X158275000Y-120450000D01*
X158275000Y-120516666D01*
X158241666Y-120616666D01*
X157841666Y-121016666D01*
X158275000Y-121016666D01*
X156577500Y-123508333D02*
X156677500Y-123541666D01*
X156844166Y-123541666D01*
X156910833Y-123508333D01*
X156944166Y-123475000D01*
X156977500Y-123408333D01*
X156977500Y-123341666D01*
X156944166Y-123275000D01*
X156910833Y-123241666D01*
X156844166Y-123208333D01*
X156710833Y-123175000D01*
X156644166Y-123141666D01*
X156610833Y-123108333D01*
X156577500Y-123041666D01*
X156577500Y-122975000D01*
X156610833Y-122908333D01*
X156644166Y-122875000D01*
X156710833Y-122841666D01*
X156877500Y-122841666D01*
X156977500Y-122875000D01*
X157677500Y-123475000D02*
X157644166Y-123508333D01*
X157544166Y-123541666D01*
X157477500Y-123541666D01*
X157377500Y-123508333D01*
X157310833Y-123441666D01*
X157277500Y-123375000D01*
X157244166Y-123241666D01*
X157244166Y-123141666D01*
X157277500Y-123008333D01*
X157310833Y-122941666D01*
X157377500Y-122875000D01*
X157477500Y-122841666D01*
X157544166Y-122841666D01*
X157644166Y-122875000D01*
X157677500Y-122908333D01*
X157977500Y-123541666D02*
X157977500Y-122841666D01*
X158377500Y-123541666D02*
X158077500Y-123141666D01*
X158377500Y-122841666D02*
X157977500Y-123241666D01*
X156641666Y-133683333D02*
X156741666Y-133716666D01*
X156908333Y-133716666D01*
X156975000Y-133683333D01*
X157008333Y-133650000D01*
X157041666Y-133583333D01*
X157041666Y-133516666D01*
X157008333Y-133450000D01*
X156975000Y-133416666D01*
X156908333Y-133383333D01*
X156775000Y-133350000D01*
X156708333Y-133316666D01*
X156675000Y-133283333D01*
X156641666Y-133216666D01*
X156641666Y-133150000D01*
X156675000Y-133083333D01*
X156708333Y-133050000D01*
X156775000Y-133016666D01*
X156941666Y-133016666D01*
X157041666Y-133050000D01*
X157741666Y-133650000D02*
X157708333Y-133683333D01*
X157608333Y-133716666D01*
X157541666Y-133716666D01*
X157441666Y-133683333D01*
X157375000Y-133616666D01*
X157341666Y-133550000D01*
X157308333Y-133416666D01*
X157308333Y-133316666D01*
X157341666Y-133183333D01*
X157375000Y-133116666D01*
X157441666Y-133050000D01*
X157541666Y-133016666D01*
X157608333Y-133016666D01*
X157708333Y-133050000D01*
X157741666Y-133083333D01*
X158375000Y-133716666D02*
X158041666Y-133716666D01*
X158041666Y-133016666D01*
X156941666Y-138125000D02*
X156875000Y-138091666D01*
X156775000Y-138091666D01*
X156675000Y-138125000D01*
X156608333Y-138191666D01*
X156575000Y-138258333D01*
X156541666Y-138391666D01*
X156541666Y-138491666D01*
X156575000Y-138625000D01*
X156608333Y-138691666D01*
X156675000Y-138758333D01*
X156775000Y-138791666D01*
X156841666Y-138791666D01*
X156941666Y-138758333D01*
X156975000Y-138725000D01*
X156975000Y-138491666D01*
X156841666Y-138491666D01*
X157275000Y-138791666D02*
X157275000Y-138091666D01*
X157675000Y-138791666D01*
X157675000Y-138091666D01*
X158008333Y-138791666D02*
X158008333Y-138091666D01*
X158175000Y-138091666D01*
X158275000Y-138125000D01*
X158341666Y-138191666D01*
X158375000Y-138258333D01*
X158408333Y-138391666D01*
X158408333Y-138491666D01*
X158375000Y-138625000D01*
X158341666Y-138691666D01*
X158275000Y-138758333D01*
X158175000Y-138791666D01*
X158008333Y-138791666D01*
X156941666Y-130533333D02*
X156975000Y-130500000D01*
X157041666Y-130466666D01*
X157208333Y-130466666D01*
X157275000Y-130500000D01*
X157308333Y-130533333D01*
X157341666Y-130600000D01*
X157341666Y-130666666D01*
X157308333Y-130766666D01*
X156908333Y-131166666D01*
X157341666Y-131166666D01*
X158008333Y-131166666D02*
X157608333Y-131166666D01*
X157808333Y-131166666D02*
X157808333Y-130466666D01*
X157741666Y-130566666D01*
X157675000Y-130633333D01*
X157608333Y-130666666D01*
D11*
X172172333Y-94845142D02*
X172124714Y-94892761D01*
X171981857Y-94940380D01*
X171886619Y-94940380D01*
X171743761Y-94892761D01*
X171648523Y-94797523D01*
X171600904Y-94702285D01*
X171553285Y-94511809D01*
X171553285Y-94368952D01*
X171600904Y-94178476D01*
X171648523Y-94083238D01*
X171743761Y-93988000D01*
X171886619Y-93940380D01*
X171981857Y-93940380D01*
X172124714Y-93988000D01*
X172172333Y-94035619D01*
X172505666Y-93940380D02*
X173124714Y-93940380D01*
X172791380Y-94321333D01*
X172934238Y-94321333D01*
X173029476Y-94368952D01*
X173077095Y-94416571D01*
X173124714Y-94511809D01*
X173124714Y-94749904D01*
X173077095Y-94845142D01*
X173029476Y-94892761D01*
X172934238Y-94940380D01*
X172648523Y-94940380D01*
X172553285Y-94892761D01*
X172505666Y-94845142D01*
X178204904Y-91638380D02*
X178204904Y-90638380D01*
X178443000Y-90638380D01*
X178585857Y-90686000D01*
X178681095Y-90781238D01*
X178728714Y-90876476D01*
X178776333Y-91066952D01*
X178776333Y-91209809D01*
X178728714Y-91400285D01*
X178681095Y-91495523D01*
X178585857Y-91590761D01*
X178443000Y-91638380D01*
X178204904Y-91638380D01*
X179157285Y-90733619D02*
X179204904Y-90686000D01*
X179300142Y-90638380D01*
X179538238Y-90638380D01*
X179633476Y-90686000D01*
X179681095Y-90733619D01*
X179728714Y-90828857D01*
X179728714Y-90924095D01*
X179681095Y-91066952D01*
X179109666Y-91638380D01*
X179728714Y-91638380D01*
X177125333Y-110085142D02*
X177077714Y-110132761D01*
X176934857Y-110180380D01*
X176839619Y-110180380D01*
X176696761Y-110132761D01*
X176601523Y-110037523D01*
X176553904Y-109942285D01*
X176506285Y-109751809D01*
X176506285Y-109608952D01*
X176553904Y-109418476D01*
X176601523Y-109323238D01*
X176696761Y-109228000D01*
X176839619Y-109180380D01*
X176934857Y-109180380D01*
X177077714Y-109228000D01*
X177125333Y-109275619D01*
X177982476Y-109180380D02*
X177792000Y-109180380D01*
X177696761Y-109228000D01*
X177649142Y-109275619D01*
X177553904Y-109418476D01*
X177506285Y-109608952D01*
X177506285Y-109989904D01*
X177553904Y-110085142D01*
X177601523Y-110132761D01*
X177696761Y-110180380D01*
X177887238Y-110180380D01*
X177982476Y-110132761D01*
X178030095Y-110085142D01*
X178077714Y-109989904D01*
X178077714Y-109751809D01*
X178030095Y-109656571D01*
X177982476Y-109608952D01*
X177887238Y-109561333D01*
X177696761Y-109561333D01*
X177601523Y-109608952D01*
X177553904Y-109656571D01*
X177506285Y-109751809D01*
X162774333Y-94845142D02*
X162726714Y-94892761D01*
X162583857Y-94940380D01*
X162488619Y-94940380D01*
X162345761Y-94892761D01*
X162250523Y-94797523D01*
X162202904Y-94702285D01*
X162155285Y-94511809D01*
X162155285Y-94368952D01*
X162202904Y-94178476D01*
X162250523Y-94083238D01*
X162345761Y-93988000D01*
X162488619Y-93940380D01*
X162583857Y-93940380D01*
X162726714Y-93988000D01*
X162774333Y-94035619D01*
X163679095Y-93940380D02*
X163202904Y-93940380D01*
X163155285Y-94416571D01*
X163202904Y-94368952D01*
X163298142Y-94321333D01*
X163536238Y-94321333D01*
X163631476Y-94368952D01*
X163679095Y-94416571D01*
X163726714Y-94511809D01*
X163726714Y-94749904D01*
X163679095Y-94845142D01*
X163631476Y-94892761D01*
X163536238Y-94940380D01*
X163298142Y-94940380D01*
X163202904Y-94892761D01*
X163155285Y-94845142D01*
X167473333Y-100179142D02*
X167425714Y-100226761D01*
X167282857Y-100274380D01*
X167187619Y-100274380D01*
X167044761Y-100226761D01*
X166949523Y-100131523D01*
X166901904Y-100036285D01*
X166854285Y-99845809D01*
X166854285Y-99702952D01*
X166901904Y-99512476D01*
X166949523Y-99417238D01*
X167044761Y-99322000D01*
X167187619Y-99274380D01*
X167282857Y-99274380D01*
X167425714Y-99322000D01*
X167473333Y-99369619D01*
X168330476Y-99607714D02*
X168330476Y-100274380D01*
X168092380Y-99226761D02*
X167854285Y-99941047D01*
X168473333Y-99941047D01*
X170013333Y-100274380D02*
X169680000Y-99798190D01*
X169441904Y-100274380D02*
X169441904Y-99274380D01*
X169822857Y-99274380D01*
X169918095Y-99322000D01*
X169965714Y-99369619D01*
X170013333Y-99464857D01*
X170013333Y-99607714D01*
X169965714Y-99702952D01*
X169918095Y-99750571D01*
X169822857Y-99798190D01*
X169441904Y-99798190D01*
X170870476Y-99607714D02*
X170870476Y-100274380D01*
X170632380Y-99226761D02*
X170394285Y-99941047D01*
X171013333Y-99941047D01*
X174712333Y-94940380D02*
X174379000Y-94464190D01*
X174140904Y-94940380D02*
X174140904Y-93940380D01*
X174521857Y-93940380D01*
X174617095Y-93988000D01*
X174664714Y-94035619D01*
X174712333Y-94130857D01*
X174712333Y-94273714D01*
X174664714Y-94368952D01*
X174617095Y-94416571D01*
X174521857Y-94464190D01*
X174140904Y-94464190D01*
X175283761Y-94368952D02*
X175188523Y-94321333D01*
X175140904Y-94273714D01*
X175093285Y-94178476D01*
X175093285Y-94130857D01*
X175140904Y-94035619D01*
X175188523Y-93988000D01*
X175283761Y-93940380D01*
X175474238Y-93940380D01*
X175569476Y-93988000D01*
X175617095Y-94035619D01*
X175664714Y-94130857D01*
X175664714Y-94178476D01*
X175617095Y-94273714D01*
X175569476Y-94321333D01*
X175474238Y-94368952D01*
X175283761Y-94368952D01*
X175188523Y-94416571D01*
X175140904Y-94464190D01*
X175093285Y-94559428D01*
X175093285Y-94749904D01*
X175140904Y-94845142D01*
X175188523Y-94892761D01*
X175283761Y-94940380D01*
X175474238Y-94940380D01*
X175569476Y-94892761D01*
X175617095Y-94845142D01*
X175664714Y-94749904D01*
X175664714Y-94559428D01*
X175617095Y-94464190D01*
X175569476Y-94416571D01*
X175474238Y-94368952D01*
X164433333Y-109827142D02*
X164385714Y-109874761D01*
X164242857Y-109922380D01*
X164147619Y-109922380D01*
X164004761Y-109874761D01*
X163909523Y-109779523D01*
X163861904Y-109684285D01*
X163814285Y-109493809D01*
X163814285Y-109350952D01*
X163861904Y-109160476D01*
X163909523Y-109065238D01*
X164004761Y-108970000D01*
X164147619Y-108922380D01*
X164242857Y-108922380D01*
X164385714Y-108970000D01*
X164433333Y-109017619D01*
X164766666Y-108922380D02*
X165433333Y-108922380D01*
X165004761Y-109922380D01*
X175641095Y-116673380D02*
X175641095Y-117482904D01*
X175688714Y-117578142D01*
X175736333Y-117625761D01*
X175831571Y-117673380D01*
X176022047Y-117673380D01*
X176117285Y-117625761D01*
X176164904Y-117578142D01*
X176212523Y-117482904D01*
X176212523Y-116673380D01*
X177212523Y-117673380D02*
X176641095Y-117673380D01*
X176926809Y-117673380D02*
X176926809Y-116673380D01*
X176831571Y-116816238D01*
X176736333Y-116911476D01*
X176641095Y-116959095D01*
X180117761Y-103290619D02*
X180022523Y-103243000D01*
X179927285Y-103147761D01*
X179784428Y-103004904D01*
X179689190Y-102957285D01*
X179593952Y-102957285D01*
X179641571Y-103195380D02*
X179546333Y-103147761D01*
X179451095Y-103052523D01*
X179403476Y-102862047D01*
X179403476Y-102528714D01*
X179451095Y-102338238D01*
X179546333Y-102243000D01*
X179641571Y-102195380D01*
X179832047Y-102195380D01*
X179927285Y-102243000D01*
X180022523Y-102338238D01*
X180070142Y-102528714D01*
X180070142Y-102862047D01*
X180022523Y-103052523D01*
X179927285Y-103147761D01*
X179832047Y-103195380D01*
X179641571Y-103195380D01*
X180451095Y-102290619D02*
X180498714Y-102243000D01*
X180593952Y-102195380D01*
X180832047Y-102195380D01*
X180927285Y-102243000D01*
X180974904Y-102290619D01*
X181022523Y-102385857D01*
X181022523Y-102481095D01*
X180974904Y-102623952D01*
X180403476Y-103195380D01*
X181022523Y-103195380D01*
X157186333Y-100147380D02*
X156853000Y-99671190D01*
X156614904Y-100147380D02*
X156614904Y-99147380D01*
X156995857Y-99147380D01*
X157091095Y-99195000D01*
X157138714Y-99242619D01*
X157186333Y-99337857D01*
X157186333Y-99480714D01*
X157138714Y-99575952D01*
X157091095Y-99623571D01*
X156995857Y-99671190D01*
X156614904Y-99671190D01*
X157519666Y-99147380D02*
X158138714Y-99147380D01*
X157805380Y-99528333D01*
X157948238Y-99528333D01*
X158043476Y-99575952D01*
X158091095Y-99623571D01*
X158138714Y-99718809D01*
X158138714Y-99956904D01*
X158091095Y-100052142D01*
X158043476Y-100099761D01*
X157948238Y-100147380D01*
X157662523Y-100147380D01*
X157567285Y-100099761D01*
X157519666Y-100052142D01*
X165187333Y-100274380D02*
X164854000Y-99798190D01*
X164615904Y-100274380D02*
X164615904Y-99274380D01*
X164996857Y-99274380D01*
X165092095Y-99322000D01*
X165139714Y-99369619D01*
X165187333Y-99464857D01*
X165187333Y-99607714D01*
X165139714Y-99702952D01*
X165092095Y-99750571D01*
X164996857Y-99798190D01*
X164615904Y-99798190D01*
X166092095Y-99274380D02*
X165615904Y-99274380D01*
X165568285Y-99750571D01*
X165615904Y-99702952D01*
X165711142Y-99655333D01*
X165949238Y-99655333D01*
X166044476Y-99702952D01*
X166092095Y-99750571D01*
X166139714Y-99845809D01*
X166139714Y-100083904D01*
X166092095Y-100179142D01*
X166044476Y-100226761D01*
X165949238Y-100274380D01*
X165711142Y-100274380D01*
X165615904Y-100226761D01*
X165568285Y-100179142D01*
X180554333Y-98115380D02*
X180221000Y-97639190D01*
X179982904Y-98115380D02*
X179982904Y-97115380D01*
X180363857Y-97115380D01*
X180459095Y-97163000D01*
X180506714Y-97210619D01*
X180554333Y-97305857D01*
X180554333Y-97448714D01*
X180506714Y-97543952D01*
X180459095Y-97591571D01*
X180363857Y-97639190D01*
X179982904Y-97639190D01*
X181030523Y-98115380D02*
X181221000Y-98115380D01*
X181316238Y-98067761D01*
X181363857Y-98020142D01*
X181459095Y-97877285D01*
X181506714Y-97686809D01*
X181506714Y-97305857D01*
X181459095Y-97210619D01*
X181411476Y-97163000D01*
X181316238Y-97115380D01*
X181125761Y-97115380D01*
X181030523Y-97163000D01*
X180982904Y-97210619D01*
X180935285Y-97305857D01*
X180935285Y-97543952D01*
X180982904Y-97639190D01*
X181030523Y-97686809D01*
X181125761Y-97734428D01*
X181316238Y-97734428D01*
X181411476Y-97686809D01*
X181459095Y-97639190D01*
X181506714Y-97543952D01*
X161993333Y-117122380D02*
X161660000Y-116646190D01*
X161421904Y-117122380D02*
X161421904Y-116122380D01*
X161802857Y-116122380D01*
X161898095Y-116170000D01*
X161945714Y-116217619D01*
X161993333Y-116312857D01*
X161993333Y-116455714D01*
X161945714Y-116550952D01*
X161898095Y-116598571D01*
X161802857Y-116646190D01*
X161421904Y-116646190D01*
X162374285Y-116217619D02*
X162421904Y-116170000D01*
X162517142Y-116122380D01*
X162755238Y-116122380D01*
X162850476Y-116170000D01*
X162898095Y-116217619D01*
X162945714Y-116312857D01*
X162945714Y-116408095D01*
X162898095Y-116550952D01*
X162326666Y-117122380D01*
X162945714Y-117122380D01*
X180554333Y-100274380D02*
X180221000Y-99798190D01*
X179982904Y-100274380D02*
X179982904Y-99274380D01*
X180363857Y-99274380D01*
X180459095Y-99322000D01*
X180506714Y-99369619D01*
X180554333Y-99464857D01*
X180554333Y-99607714D01*
X180506714Y-99702952D01*
X180459095Y-99750571D01*
X180363857Y-99798190D01*
X179982904Y-99798190D01*
X181411476Y-99274380D02*
X181221000Y-99274380D01*
X181125761Y-99322000D01*
X181078142Y-99369619D01*
X180982904Y-99512476D01*
X180935285Y-99702952D01*
X180935285Y-100083904D01*
X180982904Y-100179142D01*
X181030523Y-100226761D01*
X181125761Y-100274380D01*
X181316238Y-100274380D01*
X181411476Y-100226761D01*
X181459095Y-100179142D01*
X181506714Y-100083904D01*
X181506714Y-99845809D01*
X181459095Y-99750571D01*
X181411476Y-99702952D01*
X181316238Y-99655333D01*
X181125761Y-99655333D01*
X181030523Y-99702952D01*
X180982904Y-99750571D01*
X180935285Y-99845809D01*
X160528095Y-99528380D02*
X160528095Y-100337904D01*
X160575714Y-100433142D01*
X160623333Y-100480761D01*
X160718571Y-100528380D01*
X160909047Y-100528380D01*
X161004285Y-100480761D01*
X161051904Y-100433142D01*
X161099523Y-100337904D01*
X161099523Y-99528380D01*
X161528095Y-99623619D02*
X161575714Y-99576000D01*
X161670952Y-99528380D01*
X161909047Y-99528380D01*
X162004285Y-99576000D01*
X162051904Y-99623619D01*
X162099523Y-99718857D01*
X162099523Y-99814095D01*
X162051904Y-99956952D01*
X161480476Y-100528380D01*
X162099523Y-100528380D01*
X158456333Y-94083142D02*
X158408714Y-94130761D01*
X158265857Y-94178380D01*
X158170619Y-94178380D01*
X158027761Y-94130761D01*
X157932523Y-94035523D01*
X157884904Y-93940285D01*
X157837285Y-93749809D01*
X157837285Y-93606952D01*
X157884904Y-93416476D01*
X157932523Y-93321238D01*
X158027761Y-93226000D01*
X158170619Y-93178380D01*
X158265857Y-93178380D01*
X158408714Y-93226000D01*
X158456333Y-93273619D01*
X159408714Y-94178380D02*
X158837285Y-94178380D01*
X159123000Y-94178380D02*
X159123000Y-93178380D01*
X159027761Y-93321238D01*
X158932523Y-93416476D01*
X158837285Y-93464095D01*
X162988666Y-90130380D02*
X162988666Y-90844666D01*
X162941047Y-90987523D01*
X162845809Y-91082761D01*
X162702952Y-91130380D01*
X162607714Y-91130380D01*
X163988666Y-91130380D02*
X163417238Y-91130380D01*
X163702952Y-91130380D02*
X163702952Y-90130380D01*
X163607714Y-90273238D01*
X163512476Y-90368476D01*
X163417238Y-90416095D01*
X162972761Y-107227619D02*
X162877523Y-107180000D01*
X162782285Y-107084761D01*
X162639428Y-106941904D01*
X162544190Y-106894285D01*
X162448952Y-106894285D01*
X162496571Y-107132380D02*
X162401333Y-107084761D01*
X162306095Y-106989523D01*
X162258476Y-106799047D01*
X162258476Y-106465714D01*
X162306095Y-106275238D01*
X162401333Y-106180000D01*
X162496571Y-106132380D01*
X162687047Y-106132380D01*
X162782285Y-106180000D01*
X162877523Y-106275238D01*
X162925142Y-106465714D01*
X162925142Y-106799047D01*
X162877523Y-106989523D01*
X162782285Y-107084761D01*
X162687047Y-107132380D01*
X162496571Y-107132380D01*
X163877523Y-107132380D02*
X163306095Y-107132380D01*
X163591809Y-107132380D02*
X163591809Y-106132380D01*
X163496571Y-106275238D01*
X163401333Y-106370476D01*
X163306095Y-106418095D01*
X158391904Y-90242380D02*
X158391904Y-89242380D01*
X158630000Y-89242380D01*
X158772857Y-89290000D01*
X158868095Y-89385238D01*
X158915714Y-89480476D01*
X158963333Y-89670952D01*
X158963333Y-89813809D01*
X158915714Y-90004285D01*
X158868095Y-90099523D01*
X158772857Y-90194761D01*
X158630000Y-90242380D01*
X158391904Y-90242380D01*
X159915714Y-90242380D02*
X159344285Y-90242380D01*
X159630000Y-90242380D02*
X159630000Y-89242380D01*
X159534761Y-89385238D01*
X159439523Y-89480476D01*
X159344285Y-89528095D01*
X159726333Y-108688142D02*
X159678714Y-108735761D01*
X159535857Y-108783380D01*
X159440619Y-108783380D01*
X159297761Y-108735761D01*
X159202523Y-108640523D01*
X159154904Y-108545285D01*
X159107285Y-108354809D01*
X159107285Y-108211952D01*
X159154904Y-108021476D01*
X159202523Y-107926238D01*
X159297761Y-107831000D01*
X159440619Y-107783380D01*
X159535857Y-107783380D01*
X159678714Y-107831000D01*
X159726333Y-107878619D01*
X160107285Y-107878619D02*
X160154904Y-107831000D01*
X160250142Y-107783380D01*
X160488238Y-107783380D01*
X160583476Y-107831000D01*
X160631095Y-107878619D01*
X160678714Y-107973857D01*
X160678714Y-108069095D01*
X160631095Y-108211952D01*
X160059666Y-108783380D01*
X160678714Y-108783380D01*
X180111904Y-95792380D02*
X180111904Y-94792380D01*
X180350000Y-94792380D01*
X180492857Y-94840000D01*
X180588095Y-94935238D01*
X180635714Y-95030476D01*
X180683333Y-95220952D01*
X180683333Y-95363809D01*
X180635714Y-95554285D01*
X180588095Y-95649523D01*
X180492857Y-95744761D01*
X180350000Y-95792380D01*
X180111904Y-95792380D01*
X181016666Y-94792380D02*
X181635714Y-94792380D01*
X181302380Y-95173333D01*
X181445238Y-95173333D01*
X181540476Y-95220952D01*
X181588095Y-95268571D01*
X181635714Y-95363809D01*
X181635714Y-95601904D01*
X181588095Y-95697142D01*
X181540476Y-95744761D01*
X181445238Y-95792380D01*
X181159523Y-95792380D01*
X181064285Y-95744761D01*
X181016666Y-95697142D01*
X177125333Y-105175793D02*
X176792000Y-104699603D01*
X176553904Y-105175793D02*
X176553904Y-104175793D01*
X176934857Y-104175793D01*
X177030095Y-104223413D01*
X177077714Y-104271032D01*
X177125333Y-104366270D01*
X177125333Y-104509127D01*
X177077714Y-104604365D01*
X177030095Y-104651984D01*
X176934857Y-104699603D01*
X176553904Y-104699603D01*
X177458666Y-104175793D02*
X178125333Y-104175793D01*
X177696761Y-105175793D01*
X174331333Y-100020380D02*
X173998000Y-99544190D01*
X173759904Y-100020380D02*
X173759904Y-99020380D01*
X174140857Y-99020380D01*
X174236095Y-99068000D01*
X174283714Y-99115619D01*
X174331333Y-99210857D01*
X174331333Y-99353714D01*
X174283714Y-99448952D01*
X174236095Y-99496571D01*
X174140857Y-99544190D01*
X173759904Y-99544190D01*
X175283714Y-100020380D02*
X174712285Y-100020380D01*
X174998000Y-100020380D02*
X174998000Y-99020380D01*
X174902761Y-99163238D01*
X174807523Y-99258476D01*
X174712285Y-99306095D01*
X172198095Y-108962380D02*
X172198095Y-109771904D01*
X172245714Y-109867142D01*
X172293333Y-109914761D01*
X172388571Y-109962380D01*
X172579047Y-109962380D01*
X172674285Y-109914761D01*
X172721904Y-109867142D01*
X172769523Y-109771904D01*
X172769523Y-108962380D01*
X173150476Y-108962380D02*
X173769523Y-108962380D01*
X173436190Y-109343333D01*
X173579047Y-109343333D01*
X173674285Y-109390952D01*
X173721904Y-109438571D01*
X173769523Y-109533809D01*
X173769523Y-109771904D01*
X173721904Y-109867142D01*
X173674285Y-109914761D01*
X173579047Y-109962380D01*
X173293333Y-109962380D01*
X173198095Y-109914761D01*
X173150476Y-109867142D01*
X168084666Y-111450761D02*
X168227523Y-111498380D01*
X168465619Y-111498380D01*
X168560857Y-111450761D01*
X168608476Y-111403142D01*
X168656095Y-111307904D01*
X168656095Y-111212666D01*
X168608476Y-111117428D01*
X168560857Y-111069809D01*
X168465619Y-111022190D01*
X168275142Y-110974571D01*
X168179904Y-110926952D01*
X168132285Y-110879333D01*
X168084666Y-110784095D01*
X168084666Y-110688857D01*
X168132285Y-110593619D01*
X168179904Y-110546000D01*
X168275142Y-110498380D01*
X168513238Y-110498380D01*
X168656095Y-110546000D01*
X168989428Y-110498380D02*
X169227523Y-111498380D01*
X169418000Y-110784095D01*
X169608476Y-111498380D01*
X169846571Y-110498380D01*
X170751333Y-111498380D02*
X170179904Y-111498380D01*
X170465619Y-111498380D02*
X170465619Y-110498380D01*
X170370380Y-110641238D01*
X170275142Y-110736476D01*
X170179904Y-110784095D01*
D12*
X172943000Y-96766748D02*
X172943000Y-97289252D01*
X171473000Y-96766748D02*
X171473000Y-97289252D01*
X179905000Y-92004000D02*
X177045000Y-92004000D01*
X177045000Y-93924000D02*
X179905000Y-93924000D01*
X179905000Y-93924000D02*
X179905000Y-92004000D01*
X174525000Y-109466748D02*
X174525000Y-109989252D01*
X175995000Y-109466748D02*
X175995000Y-109989252D01*
X163803000Y-96766748D02*
X163803000Y-97289252D01*
X162333000Y-96766748D02*
X162333000Y-97289252D01*
X168375000Y-96766748D02*
X168375000Y-97289252D01*
X166905000Y-96766748D02*
X166905000Y-97289252D01*
X170661000Y-97255064D02*
X170661000Y-96800936D01*
X169191000Y-97255064D02*
X169191000Y-96800936D01*
X175741000Y-92175064D02*
X175741000Y-91720936D01*
X174271000Y-92175064D02*
X174271000Y-91720936D01*
X163395000Y-109128748D02*
X163395000Y-109651252D01*
X161925000Y-109128748D02*
X161925000Y-109651252D01*
X178030000Y-144623800D02*
X178030000Y-138208800D01*
X178030000Y-119663800D02*
X178030000Y-118883800D01*
X159790000Y-119663800D02*
X159790000Y-118883800D01*
X159790000Y-144623800D02*
X159790000Y-138208800D01*
X178030000Y-138208800D02*
X178410000Y-138208800D01*
X178030000Y-144623800D02*
X159790000Y-144623800D01*
X159790000Y-118883800D02*
X160790000Y-118883800D01*
X178030000Y-118883800D02*
X177030000Y-118883800D01*
X175830000Y-103723413D02*
X177230000Y-103723413D01*
X177230000Y-101403413D02*
X175330000Y-101403413D01*
X174840000Y-101403413D02*
G75*
G03*
X174840000Y-101403413I-60000J0D01*
G01*
X158284936Y-98779000D02*
X158739064Y-98779000D01*
X158284936Y-97309000D02*
X158739064Y-97309000D01*
X164619000Y-97255064D02*
X164619000Y-96800936D01*
X166089000Y-97255064D02*
X166089000Y-96800936D01*
X177826936Y-96801000D02*
X178281064Y-96801000D01*
X177826936Y-98271000D02*
X178281064Y-98271000D01*
X162787000Y-114019064D02*
X162787000Y-113564936D01*
X161317000Y-114019064D02*
X161317000Y-113564936D01*
X178281064Y-100557000D02*
X177826936Y-100557000D01*
X178281064Y-99087000D02*
X177826936Y-99087000D01*
X160310000Y-102362000D02*
X160310000Y-103162000D01*
X157190000Y-102362000D02*
X157190000Y-103162000D01*
X157190000Y-102362000D02*
X157190000Y-101562000D01*
X160310000Y-102362000D02*
X160310000Y-100562000D01*
X158884252Y-94845200D02*
X158361748Y-94845200D01*
X158884252Y-96315200D02*
X158361748Y-96315200D01*
X165090000Y-93260000D02*
X165740000Y-93260000D01*
X172710000Y-91530000D02*
X172710000Y-93260000D01*
X165090000Y-88960000D02*
X165090000Y-89170000D01*
X170660000Y-93960000D02*
X170210000Y-93960000D01*
X170660000Y-93960000D02*
X170660000Y-93570000D01*
X172710000Y-88960000D02*
X172710000Y-89170000D01*
X165090000Y-91530000D02*
X165090000Y-93260000D01*
X172710000Y-93260000D02*
X172050000Y-93260000D01*
X164882000Y-103936800D02*
X164882000Y-104586800D01*
X161762000Y-103936800D02*
X161762000Y-104586800D01*
X161762000Y-103936800D02*
X161762000Y-103286800D01*
X164882000Y-103936800D02*
X164882000Y-102261800D01*
X156830200Y-90490800D02*
X160730200Y-90490800D01*
X156830200Y-90490800D02*
X156830200Y-92490800D01*
X156830200Y-92490800D02*
X160730200Y-92490800D01*
X159011252Y-107161000D02*
X158488748Y-107161000D01*
X159011252Y-105691000D02*
X158488748Y-105691000D01*
X177054000Y-96210000D02*
X179914000Y-96210000D01*
X179914000Y-94290000D02*
X177054000Y-94290000D01*
X179914000Y-96210000D02*
X179914000Y-94290000D01*
X176556936Y-105638413D02*
X177011064Y-105638413D01*
X176556936Y-107108413D02*
X177011064Y-107108413D01*
X173763000Y-96800936D02*
X173763000Y-97255064D01*
X175233000Y-96800936D02*
X175233000Y-97255064D01*
D11*
X171747000Y-109885000D02*
X171747000Y-108775000D01*
X167597000Y-109885000D02*
X167597000Y-108775000D01*
X167597000Y-109885000D02*
X171747000Y-109885000D01*
X167597000Y-102045000D02*
X167597000Y-100935000D01*
X167597000Y-102045000D02*
X166472000Y-102045000D01*
X171747000Y-100935000D02*
X171747000Y-102045000D01*
X167597000Y-100935000D02*
X171747000Y-100935000D01*
D12*
X167172000Y-101510000D02*
G75*
G03*
X167172000Y-101510000I-141421J0D01*
G01*
X172618000Y-113246000D02*
X172618000Y-112046000D01*
X172618000Y-116046000D02*
X172618000Y-114846000D01*
X166218000Y-116046000D02*
X172618000Y-116046000D01*
X166218000Y-114846000D02*
X166218000Y-116046000D01*
X166218000Y-112046000D02*
X166218000Y-113246000D01*
X172618000Y-112046000D02*
X166218000Y-112046000D01*
%LPC*%
D13*
X172208000Y-95990500D03*
X172208000Y-98065500D03*
D14*
X179070000Y-92964000D03*
X177020000Y-92964000D03*
D15*
X157480000Y-109220000D03*
D16*
X157480000Y-111760000D03*
X157480000Y-114300000D03*
X157480000Y-116840000D03*
X157480000Y-119380000D03*
X157480000Y-121920000D03*
X157480000Y-124460000D03*
X157480000Y-127000000D03*
X157480000Y-129540000D03*
X157480000Y-132080000D03*
X157480000Y-134620000D03*
X157480000Y-137160000D03*
D13*
X175260000Y-108690500D03*
X175260000Y-110765500D03*
X163068000Y-95990500D03*
X163068000Y-98065500D03*
X167640000Y-95990500D03*
X167640000Y-98065500D03*
D17*
X169926000Y-98028000D03*
X169926000Y-96028000D03*
X175006000Y-92948000D03*
X175006000Y-90948000D03*
D13*
X162660000Y-108352500D03*
X162660000Y-110427500D03*
D18*
X177660000Y-137013800D03*
X177660000Y-135743800D03*
X177660000Y-134473800D03*
X177660000Y-133203800D03*
X177660000Y-131933800D03*
X177660000Y-130663800D03*
X177660000Y-129393800D03*
X177660000Y-128123800D03*
X177660000Y-126853800D03*
X177660000Y-125583800D03*
X177660000Y-124313800D03*
X177660000Y-123043800D03*
X177660000Y-121773800D03*
X177660000Y-120503800D03*
D19*
X174620000Y-119253800D03*
X173350000Y-119253800D03*
X172080000Y-119253800D03*
X170810000Y-119253800D03*
X169540000Y-119253800D03*
X168270000Y-119253800D03*
X167000000Y-119253800D03*
X165730000Y-119253800D03*
X164460000Y-119253800D03*
X163190000Y-119253800D03*
D18*
X160160000Y-120503800D03*
X160160000Y-121773800D03*
X160160000Y-123043800D03*
X160160000Y-124313800D03*
X160160000Y-125583800D03*
X160160000Y-126853800D03*
X160160000Y-128123800D03*
X160160000Y-129393800D03*
X160160000Y-130663800D03*
X160160000Y-131933800D03*
X160160000Y-133203800D03*
X160160000Y-134473800D03*
X160160000Y-135743800D03*
X160160000Y-137013800D03*
D20*
X169590000Y-129673800D03*
D21*
X175200000Y-101913413D03*
X175200000Y-102563413D03*
X175200000Y-103213413D03*
X177860000Y-103213413D03*
X177860000Y-102563413D03*
X177860000Y-101913413D03*
D22*
X157512000Y-98044000D03*
X159512000Y-98044000D03*
D17*
X165354000Y-98028000D03*
X165354000Y-96028000D03*
D22*
X177054000Y-97536000D03*
X179054000Y-97536000D03*
D17*
X162052000Y-114792000D03*
X162052000Y-112792000D03*
D23*
X179054000Y-99822000D03*
X177054000Y-99822000D03*
D24*
X159700000Y-101224500D03*
X158750000Y-101224500D03*
X157800000Y-101224500D03*
X157800000Y-103499500D03*
X159700000Y-103499500D03*
D25*
X159660500Y-95580200D03*
X157585500Y-95580200D03*
D26*
X170200000Y-93000000D03*
X169550000Y-93000000D03*
X168900000Y-93000000D03*
X168250000Y-93000000D03*
X167600000Y-93000000D03*
D27*
X170025000Y-90350000D03*
X167775000Y-90350000D03*
D28*
X172475000Y-90350000D03*
X165325000Y-90350000D03*
D29*
X171220000Y-92580000D03*
X166580000Y-92580000D03*
D30*
X164272000Y-102999300D03*
X162372000Y-102999300D03*
X163322000Y-104874300D03*
D31*
X157430200Y-91490800D03*
X160730200Y-91490800D03*
D15*
X180340000Y-137160000D03*
D16*
X180340000Y-134620000D03*
X180340000Y-132080000D03*
X180340000Y-129540000D03*
X180340000Y-127000000D03*
X180340000Y-124460000D03*
X180340000Y-121920000D03*
X180340000Y-119380000D03*
X180340000Y-116840000D03*
X180340000Y-114300000D03*
X180340000Y-111760000D03*
X180340000Y-109220000D03*
D25*
X159787500Y-106426000D03*
X157712500Y-106426000D03*
D14*
X179079000Y-95250000D03*
X177029000Y-95250000D03*
D22*
X175784000Y-106373413D03*
X177784000Y-106373413D03*
D32*
X174498000Y-96028000D03*
X174498000Y-98028000D03*
D33*
X167072000Y-102552500D03*
X167072000Y-103187500D03*
X167072000Y-103822500D03*
X167072000Y-104457500D03*
X167072000Y-105092500D03*
X167072000Y-105727500D03*
X167072000Y-106362500D03*
X167072000Y-106997500D03*
X167072000Y-107632500D03*
X167072000Y-108267500D03*
X172272000Y-108267500D03*
X172272000Y-107632500D03*
X172272000Y-106997500D03*
X172272000Y-106362500D03*
X172272000Y-105727500D03*
X172272000Y-105092500D03*
X172272000Y-104457500D03*
X172272000Y-103822500D03*
X172272000Y-103187500D03*
X172272000Y-102552500D03*
D34*
X165543000Y-114046000D03*
X173293000Y-114046000D03*
M02*
