G04 #@! TF.GenerationSoftware,KiCad,Pcbnew,(6.0.10)*
G04 #@! TF.CreationDate,2023-06-12T15:34:31-04:00*
G04 #@! TF.ProjectId,esp32_dev_board,65737033-325f-4646-9576-5f626f617264,rev?*
G04 #@! TF.SameCoordinates,Original*
G04 #@! TF.FileFunction,Legend,Bot*
G04 #@! TF.FilePolarity,Positive*
%FSLAX46Y46*%
G04 Gerber Fmt 4.6, Leading zero omitted, Abs format (unit mm)*
G04 Created by KiCad (PCBNEW (6.0.10)) date 2023-06-12 15:34:31*
%MOMM*%
%LPD*%
G01*
G04 APERTURE LIST*
%ADD10C,0.150000*%
%ADD11R,1.700000X1.700000*%
%ADD12O,1.700000X1.700000*%
%ADD13O,1.050000X1.900000*%
G04 APERTURE END LIST*
D10*
X161217380Y-120175000D02*
X160217380Y-120175000D01*
X161217380Y-120746428D01*
X160217380Y-120746428D01*
X161217380Y-121365476D02*
X161169761Y-121270238D01*
X161122142Y-121222619D01*
X161026904Y-121175000D01*
X160741190Y-121175000D01*
X160645952Y-121222619D01*
X160598333Y-121270238D01*
X160550714Y-121365476D01*
X160550714Y-121508333D01*
X160598333Y-121603571D01*
X160645952Y-121651190D01*
X160741190Y-121698809D01*
X161026904Y-121698809D01*
X161122142Y-121651190D01*
X161169761Y-121603571D01*
X161217380Y-121508333D01*
X161217380Y-121365476D01*
X161217380Y-122555952D02*
X160693571Y-122555952D01*
X160598333Y-122508333D01*
X160550714Y-122413095D01*
X160550714Y-122222619D01*
X160598333Y-122127380D01*
X161169761Y-122555952D02*
X161217380Y-122460714D01*
X161217380Y-122222619D01*
X161169761Y-122127380D01*
X161074523Y-122079761D01*
X160979285Y-122079761D01*
X160884047Y-122127380D01*
X160836428Y-122222619D01*
X160836428Y-122460714D01*
X160788809Y-122555952D01*
X161217380Y-123032142D02*
X160217380Y-123032142D01*
X161217380Y-123460714D02*
X160693571Y-123460714D01*
X160598333Y-123413095D01*
X160550714Y-123317857D01*
X160550714Y-123175000D01*
X160598333Y-123079761D01*
X160645952Y-123032142D01*
X160217380Y-124603571D02*
X161217380Y-124841666D01*
X160503095Y-125032142D01*
X161217380Y-125222619D01*
X160217380Y-125460714D01*
X161217380Y-125841666D02*
X160217380Y-125841666D01*
X161217380Y-126270238D02*
X160693571Y-126270238D01*
X160598333Y-126222619D01*
X160550714Y-126127380D01*
X160550714Y-125984523D01*
X160598333Y-125889285D01*
X160645952Y-125841666D01*
X161217380Y-126746428D02*
X160550714Y-126746428D01*
X160217380Y-126746428D02*
X160265000Y-126698809D01*
X160312619Y-126746428D01*
X160265000Y-126794047D01*
X160217380Y-126746428D01*
X160312619Y-126746428D01*
X160550714Y-127079761D02*
X160550714Y-127460714D01*
X160217380Y-127222619D02*
X161074523Y-127222619D01*
X161169761Y-127270238D01*
X161217380Y-127365476D01*
X161217380Y-127460714D01*
X161169761Y-128175000D02*
X161217380Y-128079761D01*
X161217380Y-127889285D01*
X161169761Y-127794047D01*
X161074523Y-127746428D01*
X160693571Y-127746428D01*
X160598333Y-127794047D01*
X160550714Y-127889285D01*
X160550714Y-128079761D01*
X160598333Y-128175000D01*
X160693571Y-128222619D01*
X160788809Y-128222619D01*
X160884047Y-127746428D01*
X162303571Y-117794047D02*
X162303571Y-118127380D01*
X162827380Y-118270238D02*
X162827380Y-117794047D01*
X161827380Y-117794047D01*
X161827380Y-118270238D01*
X162779761Y-118651190D02*
X162827380Y-118794047D01*
X162827380Y-119032142D01*
X162779761Y-119127380D01*
X162732142Y-119175000D01*
X162636904Y-119222619D01*
X162541666Y-119222619D01*
X162446428Y-119175000D01*
X162398809Y-119127380D01*
X162351190Y-119032142D01*
X162303571Y-118841666D01*
X162255952Y-118746428D01*
X162208333Y-118698809D01*
X162113095Y-118651190D01*
X162017857Y-118651190D01*
X161922619Y-118698809D01*
X161875000Y-118746428D01*
X161827380Y-118841666D01*
X161827380Y-119079761D01*
X161875000Y-119222619D01*
X162827380Y-119651190D02*
X161827380Y-119651190D01*
X161827380Y-120032142D01*
X161875000Y-120127380D01*
X161922619Y-120175000D01*
X162017857Y-120222619D01*
X162160714Y-120222619D01*
X162255952Y-120175000D01*
X162303571Y-120127380D01*
X162351190Y-120032142D01*
X162351190Y-119651190D01*
X161827380Y-120555952D02*
X161827380Y-121175000D01*
X162208333Y-120841666D01*
X162208333Y-120984523D01*
X162255952Y-121079761D01*
X162303571Y-121127380D01*
X162398809Y-121175000D01*
X162636904Y-121175000D01*
X162732142Y-121127380D01*
X162779761Y-121079761D01*
X162827380Y-120984523D01*
X162827380Y-120698809D01*
X162779761Y-120603571D01*
X162732142Y-120555952D01*
X161922619Y-121555952D02*
X161875000Y-121603571D01*
X161827380Y-121698809D01*
X161827380Y-121936904D01*
X161875000Y-122032142D01*
X161922619Y-122079761D01*
X162017857Y-122127380D01*
X162113095Y-122127380D01*
X162255952Y-122079761D01*
X162827380Y-121508333D01*
X162827380Y-122127380D01*
X162827380Y-123317857D02*
X161827380Y-123317857D01*
X161827380Y-123555952D01*
X161875000Y-123698809D01*
X161970238Y-123794047D01*
X162065476Y-123841666D01*
X162255952Y-123889285D01*
X162398809Y-123889285D01*
X162589285Y-123841666D01*
X162684523Y-123794047D01*
X162779761Y-123698809D01*
X162827380Y-123555952D01*
X162827380Y-123317857D01*
X162779761Y-124698809D02*
X162827380Y-124603571D01*
X162827380Y-124413095D01*
X162779761Y-124317857D01*
X162684523Y-124270238D01*
X162303571Y-124270238D01*
X162208333Y-124317857D01*
X162160714Y-124413095D01*
X162160714Y-124603571D01*
X162208333Y-124698809D01*
X162303571Y-124746428D01*
X162398809Y-124746428D01*
X162494047Y-124270238D01*
X162160714Y-125079761D02*
X162827380Y-125317857D01*
X162160714Y-125555952D01*
X162303571Y-127032142D02*
X162351190Y-127175000D01*
X162398809Y-127222619D01*
X162494047Y-127270238D01*
X162636904Y-127270238D01*
X162732142Y-127222619D01*
X162779761Y-127175000D01*
X162827380Y-127079761D01*
X162827380Y-126698809D01*
X161827380Y-126698809D01*
X161827380Y-127032142D01*
X161875000Y-127127380D01*
X161922619Y-127175000D01*
X162017857Y-127222619D01*
X162113095Y-127222619D01*
X162208333Y-127175000D01*
X162255952Y-127127380D01*
X162303571Y-127032142D01*
X162303571Y-126698809D01*
X162827380Y-127841666D02*
X162779761Y-127746428D01*
X162732142Y-127698809D01*
X162636904Y-127651190D01*
X162351190Y-127651190D01*
X162255952Y-127698809D01*
X162208333Y-127746428D01*
X162160714Y-127841666D01*
X162160714Y-127984523D01*
X162208333Y-128079761D01*
X162255952Y-128127380D01*
X162351190Y-128175000D01*
X162636904Y-128175000D01*
X162732142Y-128127380D01*
X162779761Y-128079761D01*
X162827380Y-127984523D01*
X162827380Y-127841666D01*
X162827380Y-129032142D02*
X162303571Y-129032142D01*
X162208333Y-128984523D01*
X162160714Y-128889285D01*
X162160714Y-128698809D01*
X162208333Y-128603571D01*
X162779761Y-129032142D02*
X162827380Y-128936904D01*
X162827380Y-128698809D01*
X162779761Y-128603571D01*
X162684523Y-128555952D01*
X162589285Y-128555952D01*
X162494047Y-128603571D01*
X162446428Y-128698809D01*
X162446428Y-128936904D01*
X162398809Y-129032142D01*
X162827380Y-129508333D02*
X162160714Y-129508333D01*
X162351190Y-129508333D02*
X162255952Y-129555952D01*
X162208333Y-129603571D01*
X162160714Y-129698809D01*
X162160714Y-129794047D01*
X162827380Y-130555952D02*
X161827380Y-130555952D01*
X162779761Y-130555952D02*
X162827380Y-130460714D01*
X162827380Y-130270238D01*
X162779761Y-130175000D01*
X162732142Y-130127380D01*
X162636904Y-130079761D01*
X162351190Y-130079761D01*
X162255952Y-130127380D01*
X162208333Y-130175000D01*
X162160714Y-130270238D01*
X162160714Y-130460714D01*
X162208333Y-130555952D01*
X164437380Y-122103571D02*
X163961190Y-121770238D01*
X164437380Y-121532142D02*
X163437380Y-121532142D01*
X163437380Y-121913095D01*
X163485000Y-122008333D01*
X163532619Y-122055952D01*
X163627857Y-122103571D01*
X163770714Y-122103571D01*
X163865952Y-122055952D01*
X163913571Y-122008333D01*
X163961190Y-121913095D01*
X163961190Y-121532142D01*
X164389761Y-122913095D02*
X164437380Y-122817857D01*
X164437380Y-122627380D01*
X164389761Y-122532142D01*
X164294523Y-122484523D01*
X163913571Y-122484523D01*
X163818333Y-122532142D01*
X163770714Y-122627380D01*
X163770714Y-122817857D01*
X163818333Y-122913095D01*
X163913571Y-122960714D01*
X164008809Y-122960714D01*
X164104047Y-122484523D01*
X163770714Y-123294047D02*
X164437380Y-123532142D01*
X163770714Y-123770238D01*
X164437380Y-125436904D02*
X164437380Y-124865476D01*
X164437380Y-125151190D02*
X163437380Y-125151190D01*
X163580238Y-125055952D01*
X163675476Y-124960714D01*
X163723095Y-124865476D01*
X164342142Y-125865476D02*
X164389761Y-125913095D01*
X164437380Y-125865476D01*
X164389761Y-125817857D01*
X164342142Y-125865476D01*
X164437380Y-125865476D01*
X163437380Y-126532142D02*
X163437380Y-126627380D01*
X163485000Y-126722619D01*
X163532619Y-126770238D01*
X163627857Y-126817857D01*
X163818333Y-126865476D01*
X164056428Y-126865476D01*
X164246904Y-126817857D01*
X164342142Y-126770238D01*
X164389761Y-126722619D01*
X164437380Y-126627380D01*
X164437380Y-126532142D01*
X164389761Y-126436904D01*
X164342142Y-126389285D01*
X164246904Y-126341666D01*
X164056428Y-126294047D01*
X163818333Y-126294047D01*
X163627857Y-126341666D01*
X163532619Y-126389285D01*
X163485000Y-126436904D01*
X163437380Y-126532142D01*
%LPC*%
D11*
X157480000Y-109220000D03*
D12*
X157480000Y-111760000D03*
X157480000Y-114300000D03*
X157480000Y-116840000D03*
X157480000Y-119380000D03*
X157480000Y-121920000D03*
X157480000Y-124460000D03*
X157480000Y-127000000D03*
X157480000Y-129540000D03*
X157480000Y-132080000D03*
X157480000Y-134620000D03*
X157480000Y-137160000D03*
D13*
X172475000Y-90350000D03*
X165325000Y-90350000D03*
D11*
X180340000Y-137160000D03*
D12*
X180340000Y-134620000D03*
X180340000Y-132080000D03*
X180340000Y-129540000D03*
X180340000Y-127000000D03*
X180340000Y-124460000D03*
X180340000Y-121920000D03*
X180340000Y-119380000D03*
X180340000Y-116840000D03*
X180340000Y-114300000D03*
X180340000Y-111760000D03*
X180340000Y-109220000D03*
M02*
