G04 #@! TF.GenerationSoftware,KiCad,Pcbnew,(6.0.10)*
G04 #@! TF.CreationDate,2023-06-12T15:34:31-04:00*
G04 #@! TF.ProjectId,esp32_dev_board,65737033-325f-4646-9576-5f626f617264,rev?*
G04 #@! TF.SameCoordinates,Original*
G04 #@! TF.FileFunction,Copper,L4,Bot*
G04 #@! TF.FilePolarity,Positive*
%FSLAX46Y46*%
G04 Gerber Fmt 4.6, Leading zero omitted, Abs format (unit mm)*
G04 Created by KiCad (PCBNEW (6.0.10)) date 2023-06-12 15:34:31*
%MOMM*%
%LPD*%
G01*
G04 APERTURE LIST*
G04 #@! TA.AperFunction,ComponentPad*
%ADD10R,1.700000X1.700000*%
G04 #@! TD*
G04 #@! TA.AperFunction,ComponentPad*
%ADD11O,1.700000X1.700000*%
G04 #@! TD*
G04 #@! TA.AperFunction,ComponentPad*
%ADD12O,1.050000X1.900000*%
G04 #@! TD*
G04 #@! TA.AperFunction,ViaPad*
%ADD13C,0.800000*%
G04 #@! TD*
G04 #@! TA.AperFunction,Conductor*
%ADD14C,0.250000*%
G04 #@! TD*
G04 #@! TA.AperFunction,Conductor*
%ADD15C,0.203200*%
G04 #@! TD*
G04 APERTURE END LIST*
D10*
X157480000Y-109220000D03*
D11*
X157480000Y-111760000D03*
X157480000Y-114300000D03*
X157480000Y-116840000D03*
X157480000Y-119380000D03*
X157480000Y-121920000D03*
X157480000Y-124460000D03*
X157480000Y-127000000D03*
X157480000Y-129540000D03*
X157480000Y-132080000D03*
X157480000Y-134620000D03*
X157480000Y-137160000D03*
D12*
X172475000Y-90350000D03*
X165325000Y-90350000D03*
D10*
X180340000Y-137160000D03*
D11*
X180340000Y-134620000D03*
X180340000Y-132080000D03*
X180340000Y-129540000D03*
X180340000Y-127000000D03*
X180340000Y-124460000D03*
X180340000Y-121920000D03*
X180340000Y-119380000D03*
X180340000Y-116840000D03*
X180340000Y-114300000D03*
X180340000Y-111760000D03*
X180340000Y-109220000D03*
D13*
X168070000Y-130430000D03*
X158750000Y-99822000D03*
X173812200Y-110769400D03*
X168080000Y-128910000D03*
X168830000Y-128160000D03*
X164690000Y-111290000D03*
X163068000Y-99314000D03*
X164211000Y-114147600D03*
X180390800Y-106121200D03*
X180619400Y-92989400D03*
X166800000Y-94200000D03*
X163068000Y-92760800D03*
X174599600Y-120700800D03*
X170360000Y-131200000D03*
X168830000Y-131200000D03*
X169580000Y-130440000D03*
X156464000Y-106426000D03*
X171043600Y-128879600D03*
X170360000Y-128140000D03*
X170350000Y-129670000D03*
X172212000Y-99314000D03*
X169590000Y-128910000D03*
X156464000Y-95504000D03*
X167640000Y-99314000D03*
X171110000Y-130430000D03*
X168830000Y-129670000D03*
X168859200Y-107696000D03*
X176606200Y-90957400D03*
X161137600Y-106578400D03*
X164261800Y-101650800D03*
X173532800Y-105714800D03*
X159181800Y-112649000D03*
X176174400Y-131927600D03*
X159359600Y-115595400D03*
X176098200Y-133197600D03*
X175412400Y-104622600D03*
X160467100Y-118567200D03*
X172650000Y-101600000D03*
X161772600Y-131902200D03*
X161772600Y-133146800D03*
X168525000Y-104550000D03*
D14*
X161137600Y-98221800D02*
X161137600Y-106578400D01*
X176606200Y-90957400D02*
X175938600Y-91625000D01*
X167734400Y-91625000D02*
X161137600Y-98221800D01*
X175938600Y-91625000D02*
X167734400Y-91625000D01*
X164261800Y-101650800D02*
X165037600Y-100875000D01*
X174167800Y-105079800D02*
X173532800Y-105714800D01*
X174167800Y-101295200D02*
X174167800Y-105079800D01*
X165037600Y-100875000D02*
X173747600Y-100875000D01*
X173747600Y-100875000D02*
X174167800Y-101295200D01*
D15*
X159650213Y-114893800D02*
X160061200Y-115304787D01*
X159461200Y-114731800D02*
X159623200Y-114893800D01*
X159766000Y-116181213D02*
X159766000Y-133299200D01*
X159181800Y-112649000D02*
X159461200Y-112928400D01*
X159461200Y-112928400D02*
X159461200Y-114731800D01*
X160061200Y-115304787D02*
X160061200Y-115886013D01*
X160061200Y-115886013D02*
X159766000Y-116181213D01*
X173101000Y-135001000D02*
X176174400Y-131927600D01*
X161467800Y-135001000D02*
X173101000Y-135001000D01*
X159623200Y-114893800D02*
X159650213Y-114893800D01*
X159766000Y-133299200D02*
X161467800Y-135001000D01*
X173431200Y-135864600D02*
X161163000Y-135864600D01*
X159359600Y-134061200D02*
X159359600Y-115595400D01*
X176098200Y-133197600D02*
X173431200Y-135864600D01*
X161163000Y-135864600D02*
X159359600Y-134061200D01*
D14*
X175412400Y-104622600D02*
X175412400Y-101489095D01*
X162952600Y-101842400D02*
X162952600Y-116081700D01*
X164370000Y-100425000D02*
X162952600Y-101842400D01*
X175412400Y-101489095D02*
X174348305Y-100425000D01*
X174348305Y-100425000D02*
X164370000Y-100425000D01*
X162952600Y-116081700D02*
X160467100Y-118567200D01*
X161772600Y-131902200D02*
X161772600Y-120102400D01*
X161772600Y-120102400D02*
X172650000Y-109225000D01*
X172650000Y-109225000D02*
X172650000Y-101600000D01*
X161772600Y-133146800D02*
X160825000Y-132199200D01*
X166750000Y-106325000D02*
X168525000Y-104550000D01*
X160825000Y-132199200D02*
X160825000Y-119375000D01*
X160825000Y-119375000D02*
X166750000Y-113450000D01*
X166750000Y-113450000D02*
X166750000Y-106325000D01*
M02*
