G04 #@! TF.GenerationSoftware,KiCad,Pcbnew,(6.0.10)*
G04 #@! TF.CreationDate,2023-06-12T15:34:31-04:00*
G04 #@! TF.ProjectId,esp32_dev_board,65737033-325f-4646-9576-5f626f617264,rev?*
G04 #@! TF.SameCoordinates,Original*
G04 #@! TF.FileFunction,Paste,Top*
G04 #@! TF.FilePolarity,Positive*
%FSLAX46Y46*%
G04 Gerber Fmt 4.6, Leading zero omitted, Abs format (unit mm)*
G04 Created by KiCad (PCBNEW (6.0.10)) date 2023-06-12 15:34:31*
%MOMM*%
%LPD*%
G01*
G04 APERTURE LIST*
G04 Aperture macros list*
%AMRoundRect*
0 Rectangle with rounded corners*
0 $1 Rounding radius*
0 $2 $3 $4 $5 $6 $7 $8 $9 X,Y pos of 4 corners*
0 Add a 4 corners polygon primitive as box body*
4,1,4,$2,$3,$4,$5,$6,$7,$8,$9,$2,$3,0*
0 Add four circle primitives for the rounded corners*
1,1,$1+$1,$2,$3*
1,1,$1+$1,$4,$5*
1,1,$1+$1,$6,$7*
1,1,$1+$1,$8,$9*
0 Add four rect primitives between the rounded corners*
20,1,$1+$1,$2,$3,$4,$5,0*
20,1,$1+$1,$4,$5,$6,$7,0*
20,1,$1+$1,$6,$7,$8,$9,0*
20,1,$1+$1,$8,$9,$2,$3,0*%
G04 Aperture macros list end*
%ADD10RoundRect,0.250000X-0.475000X0.337500X-0.475000X-0.337500X0.475000X-0.337500X0.475000X0.337500X0*%
%ADD11RoundRect,0.250000X0.325000X0.450000X-0.325000X0.450000X-0.325000X-0.450000X0.325000X-0.450000X0*%
%ADD12RoundRect,0.250000X0.450000X-0.350000X0.450000X0.350000X-0.450000X0.350000X-0.450000X-0.350000X0*%
%ADD13R,1.500000X0.900000*%
%ADD14R,0.900000X1.500000*%
%ADD15R,1.050000X1.050000*%
%ADD16R,1.500000X0.400000*%
%ADD17RoundRect,0.250000X-0.350000X-0.450000X0.350000X-0.450000X0.350000X0.450000X-0.350000X0.450000X0*%
%ADD18RoundRect,0.250000X0.350000X0.450000X-0.350000X0.450000X-0.350000X-0.450000X0.350000X-0.450000X0*%
%ADD19RoundRect,0.150000X-0.150000X0.512500X-0.150000X-0.512500X0.150000X-0.512500X0.150000X0.512500X0*%
%ADD20RoundRect,0.250000X0.337500X0.475000X-0.337500X0.475000X-0.337500X-0.475000X0.337500X-0.475000X0*%
%ADD21R,0.400000X1.400000*%
%ADD22R,1.750000X1.900000*%
%ADD23R,1.150000X1.450000*%
%ADD24RoundRect,0.150000X-0.150000X0.587500X-0.150000X-0.587500X0.150000X-0.587500X0.150000X0.587500X0*%
%ADD25R,0.900000X1.200000*%
%ADD26RoundRect,0.250000X-0.450000X0.350000X-0.450000X-0.350000X0.450000X-0.350000X0.450000X0.350000X0*%
%ADD27R,1.200000X0.400000*%
%ADD28R,1.250000X1.000000*%
G04 APERTURE END LIST*
D10*
X172208000Y-95990500D03*
X172208000Y-98065500D03*
D11*
X179070000Y-92964000D03*
X177020000Y-92964000D03*
D10*
X175260000Y-108690500D03*
X175260000Y-110765500D03*
X163068000Y-95990500D03*
X163068000Y-98065500D03*
X167640000Y-95990500D03*
X167640000Y-98065500D03*
D12*
X169926000Y-98028000D03*
X169926000Y-96028000D03*
X175006000Y-92948000D03*
X175006000Y-90948000D03*
D10*
X162660000Y-108352500D03*
X162660000Y-110427500D03*
D13*
X177660000Y-137013800D03*
X177660000Y-135743800D03*
X177660000Y-134473800D03*
X177660000Y-133203800D03*
X177660000Y-131933800D03*
X177660000Y-130663800D03*
X177660000Y-129393800D03*
X177660000Y-128123800D03*
X177660000Y-126853800D03*
X177660000Y-125583800D03*
X177660000Y-124313800D03*
X177660000Y-123043800D03*
X177660000Y-121773800D03*
X177660000Y-120503800D03*
D14*
X174620000Y-119253800D03*
X173350000Y-119253800D03*
X172080000Y-119253800D03*
X170810000Y-119253800D03*
X169540000Y-119253800D03*
X168270000Y-119253800D03*
X167000000Y-119253800D03*
X165730000Y-119253800D03*
X164460000Y-119253800D03*
X163190000Y-119253800D03*
D13*
X160160000Y-120503800D03*
X160160000Y-121773800D03*
X160160000Y-123043800D03*
X160160000Y-124313800D03*
X160160000Y-125583800D03*
X160160000Y-126853800D03*
X160160000Y-128123800D03*
X160160000Y-129393800D03*
X160160000Y-130663800D03*
X160160000Y-131933800D03*
X160160000Y-133203800D03*
X160160000Y-134473800D03*
X160160000Y-135743800D03*
X160160000Y-137013800D03*
D15*
X169590000Y-128148800D03*
X168065000Y-129673800D03*
X171115000Y-128148800D03*
X171115000Y-131198800D03*
X171115000Y-129673800D03*
X168065000Y-128148800D03*
X168065000Y-131198800D03*
X169590000Y-129673800D03*
X169590000Y-131198800D03*
D16*
X175200000Y-101913413D03*
X175200000Y-102563413D03*
X175200000Y-103213413D03*
X177860000Y-103213413D03*
X177860000Y-102563413D03*
X177860000Y-101913413D03*
D17*
X157512000Y-98044000D03*
X159512000Y-98044000D03*
D12*
X165354000Y-98028000D03*
X165354000Y-96028000D03*
D17*
X177054000Y-97536000D03*
X179054000Y-97536000D03*
D12*
X162052000Y-114792000D03*
X162052000Y-112792000D03*
D18*
X179054000Y-99822000D03*
X177054000Y-99822000D03*
D19*
X159700000Y-101224500D03*
X158750000Y-101224500D03*
X157800000Y-101224500D03*
X157800000Y-103499500D03*
X159700000Y-103499500D03*
D20*
X159660500Y-95580200D03*
X157585500Y-95580200D03*
D21*
X170200000Y-93000000D03*
X169550000Y-93000000D03*
X168900000Y-93000000D03*
X168250000Y-93000000D03*
X167600000Y-93000000D03*
D22*
X170025000Y-90350000D03*
X167775000Y-90350000D03*
D23*
X171220000Y-92580000D03*
X166580000Y-92580000D03*
D24*
X164272000Y-102999300D03*
X162372000Y-102999300D03*
X163322000Y-104874300D03*
D25*
X157430200Y-91490800D03*
X160730200Y-91490800D03*
D20*
X159787500Y-106426000D03*
X157712500Y-106426000D03*
D11*
X179079000Y-95250000D03*
X177029000Y-95250000D03*
D17*
X175784000Y-106373413D03*
X177784000Y-106373413D03*
D26*
X174498000Y-96028000D03*
X174498000Y-98028000D03*
D27*
X167072000Y-102552500D03*
X167072000Y-103187500D03*
X167072000Y-103822500D03*
X167072000Y-104457500D03*
X167072000Y-105092500D03*
X167072000Y-105727500D03*
X167072000Y-106362500D03*
X167072000Y-106997500D03*
X167072000Y-107632500D03*
X167072000Y-108267500D03*
X172272000Y-108267500D03*
X172272000Y-107632500D03*
X172272000Y-106997500D03*
X172272000Y-106362500D03*
X172272000Y-105727500D03*
X172272000Y-105092500D03*
X172272000Y-104457500D03*
X172272000Y-103822500D03*
X172272000Y-103187500D03*
X172272000Y-102552500D03*
D28*
X165543000Y-114046000D03*
X173293000Y-114046000D03*
M02*
