M48
; DRILL file {KiCad (6.0.10)} date Mon Jun 12 15:35:46 2023
; FORMAT={-:-/ absolute / metric / decimal}
; #@! TF.CreationDate,2023-06-12T15:35:46-04:00
; #@! TF.GenerationSoftware,Kicad,Pcbnew,(6.0.10)
; #@! TF.FileFunction,Plated,1,4,PTH
FMAT,2
METRIC
; #@! TA.AperFunction,Plated,PTH,ViaDrill
T1C0.400
; #@! TA.AperFunction,Plated,PTH,ComponentDrill
T2C0.450
; #@! TA.AperFunction,Plated,PTH,ComponentDrill
T3C1.000
%
G90
G05
T1
X156.464Y-95.504
X156.464Y-106.426
X158.75Y-99.822
X159.182Y-112.649
X159.36Y-115.595
X160.467Y-118.567
X161.138Y-106.578
X161.773Y-131.902
X161.773Y-133.147
X163.068Y-92.761
X163.068Y-99.314
X164.211Y-114.148
X164.262Y-101.651
X164.69Y-111.29
X166.8Y-94.2
X167.64Y-99.314
X168.07Y-130.43
X168.08Y-128.91
X168.525Y-104.55
X168.83Y-128.16
X168.83Y-129.67
X168.83Y-131.2
X168.859Y-107.696
X169.58Y-130.44
X169.59Y-128.91
X170.35Y-129.67
X170.36Y-128.14
X170.36Y-131.2
X171.044Y-128.88
X171.11Y-130.43
X172.212Y-99.314
X172.65Y-101.6
X173.533Y-105.715
X173.812Y-110.769
X174.6Y-120.701
X175.412Y-104.623
X176.098Y-133.198
X176.174Y-131.928
X176.606Y-90.957
X180.391Y-106.121
X180.619Y-92.989
T3
X157.48Y-109.22
X157.48Y-111.76
X157.48Y-114.3
X157.48Y-116.84
X157.48Y-119.38
X157.48Y-121.92
X157.48Y-124.46
X157.48Y-127.0
X157.48Y-129.54
X157.48Y-132.08
X157.48Y-134.62
X157.48Y-137.16
X180.34Y-109.22
X180.34Y-111.76
X180.34Y-114.3
X180.34Y-116.84
X180.34Y-119.38
X180.34Y-121.92
X180.34Y-124.46
X180.34Y-127.0
X180.34Y-129.54
X180.34Y-132.08
X180.34Y-134.62
X180.34Y-137.16
T2
X165.325Y-90.75G85X165.325Y-89.95
G05
X172.475Y-89.95G85X172.475Y-90.75
G05
T0
M30
