%TF.GenerationSoftware,KiCad,Pcbnew,(6.0.10)*%
%TF.CreationDate,2023-06-12T15:35:49-04:00*%
%TF.ProjectId,esp32_dev_board,65737033-325f-4646-9576-5f626f617264,rev?*%
%TF.SameCoordinates,Original*%
%TF.FileFunction,Drillmap*%
%TF.FilePolarity,Positive*%
%FSLAX45Y45*%
G04 Gerber Fmt 4.5, Leading zero omitted, Abs format (unit mm)*
G04 Created by KiCad (PCBNEW (6.0.10)) date 2023-06-12 15:35:49*
%MOMM*%
%LPD*%
G01*
G04 APERTURE LIST*
%ADD10C,0.100000*%
%ADD11C,0.200000*%
%ADD12C,0.040000*%
%ADD13C,0.045000*%
G04 APERTURE END LIST*
D10*
X15747000Y-8890700D02*
X18035000Y-8892500D01*
X18035000Y-8892500D02*
X18185000Y-9042500D01*
X18183600Y-14327100D02*
X18035000Y-14478900D01*
X18185000Y-9042500D02*
X18183600Y-14327100D01*
X18035000Y-14478900D02*
X15748600Y-14477300D01*
X15747000Y-8890700D02*
X15598400Y-9042500D01*
X15596800Y-14328700D02*
X15748600Y-14477300D01*
X15596800Y-14328700D02*
X15598400Y-9042500D01*
D11*
D12*
X15626400Y-9530400D02*
X15666400Y-9570400D01*
X15666400Y-9530400D02*
X15626400Y-9570400D01*
X15626400Y-10622600D02*
X15666400Y-10662600D01*
X15666400Y-10622600D02*
X15626400Y-10662600D01*
X15855000Y-9962200D02*
X15895000Y-10002200D01*
X15895000Y-9962200D02*
X15855000Y-10002200D01*
X15898180Y-11244900D02*
X15938180Y-11284900D01*
X15938180Y-11244900D02*
X15898180Y-11284900D01*
X15915960Y-11539540D02*
X15955960Y-11579540D01*
X15955960Y-11539540D02*
X15915960Y-11579540D01*
X16026710Y-11836720D02*
X16066710Y-11876720D01*
X16066710Y-11836720D02*
X16026710Y-11876720D01*
X16093760Y-10637840D02*
X16133760Y-10677840D01*
X16133760Y-10637840D02*
X16093760Y-10677840D01*
X16157260Y-13170220D02*
X16197260Y-13210220D01*
X16197260Y-13170220D02*
X16157260Y-13210220D01*
X16157260Y-13294680D02*
X16197260Y-13334680D01*
X16197260Y-13294680D02*
X16157260Y-13334680D01*
X16286800Y-9256080D02*
X16326800Y-9296080D01*
X16326800Y-9256080D02*
X16286800Y-9296080D01*
X16286800Y-9911400D02*
X16326800Y-9951400D01*
X16326800Y-9911400D02*
X16286800Y-9951400D01*
X16401100Y-11394760D02*
X16441100Y-11434760D01*
X16441100Y-11394760D02*
X16401100Y-11434760D01*
X16406180Y-10145080D02*
X16446180Y-10185080D01*
X16446180Y-10145080D02*
X16406180Y-10185080D01*
X16449000Y-11109000D02*
X16489000Y-11149000D01*
X16489000Y-11109000D02*
X16449000Y-11149000D01*
X16660000Y-9400000D02*
X16700000Y-9440000D01*
X16700000Y-9400000D02*
X16660000Y-9440000D01*
X16744000Y-9911400D02*
X16784000Y-9951400D01*
X16784000Y-9911400D02*
X16744000Y-9951400D01*
X16787000Y-13023000D02*
X16827000Y-13063000D01*
X16827000Y-13023000D02*
X16787000Y-13063000D01*
X16788000Y-12871000D02*
X16828000Y-12911000D01*
X16828000Y-12871000D02*
X16788000Y-12911000D01*
X16832500Y-10435000D02*
X16872500Y-10475000D01*
X16872500Y-10435000D02*
X16832500Y-10475000D01*
X16863000Y-12796000D02*
X16903000Y-12836000D01*
X16903000Y-12796000D02*
X16863000Y-12836000D01*
X16863000Y-12947000D02*
X16903000Y-12987000D01*
X16903000Y-12947000D02*
X16863000Y-12987000D01*
X16863000Y-13100000D02*
X16903000Y-13140000D01*
X16903000Y-13100000D02*
X16863000Y-13140000D01*
X16865920Y-10749600D02*
X16905920Y-10789600D01*
X16905920Y-10749600D02*
X16865920Y-10789600D01*
X16938000Y-13024000D02*
X16978000Y-13064000D01*
X16978000Y-13024000D02*
X16938000Y-13064000D01*
X16939000Y-12871000D02*
X16979000Y-12911000D01*
X16979000Y-12871000D02*
X16939000Y-12911000D01*
X17015000Y-12947000D02*
X17055000Y-12987000D01*
X17055000Y-12947000D02*
X17015000Y-12987000D01*
X17016000Y-12794000D02*
X17056000Y-12834000D01*
X17056000Y-12794000D02*
X17016000Y-12834000D01*
X17016000Y-13100000D02*
X17056000Y-13140000D01*
X17056000Y-13100000D02*
X17016000Y-13140000D01*
X17084360Y-12867960D02*
X17124360Y-12907960D01*
X17124360Y-12867960D02*
X17084360Y-12907960D01*
X17091000Y-13023000D02*
X17131000Y-13063000D01*
X17131000Y-13023000D02*
X17091000Y-13063000D01*
X17201200Y-9911400D02*
X17241200Y-9951400D01*
X17241200Y-9911400D02*
X17201200Y-9951400D01*
X17245000Y-10140000D02*
X17285000Y-10180000D01*
X17285000Y-10140000D02*
X17245000Y-10180000D01*
X17333280Y-10551480D02*
X17373280Y-10591480D01*
X17373280Y-10551480D02*
X17333280Y-10591480D01*
X17361220Y-11056940D02*
X17401220Y-11096940D01*
X17401220Y-11056940D02*
X17361220Y-11096940D01*
X17439960Y-12050080D02*
X17479960Y-12090080D01*
X17479960Y-12050080D02*
X17439960Y-12090080D01*
X17521240Y-10442260D02*
X17561240Y-10482260D01*
X17561240Y-10442260D02*
X17521240Y-10482260D01*
X17589820Y-13299760D02*
X17629820Y-13339760D01*
X17629820Y-13299760D02*
X17589820Y-13339760D01*
X17597440Y-13172760D02*
X17637440Y-13212760D01*
X17637440Y-13172760D02*
X17597440Y-13212760D01*
X17640620Y-9075740D02*
X17680620Y-9115740D01*
X17680620Y-9075740D02*
X17640620Y-9115740D01*
X18019080Y-10592120D02*
X18059080Y-10632120D01*
X18059080Y-10592120D02*
X18019080Y-10632120D01*
X18041940Y-9278940D02*
X18081940Y-9318940D01*
X18081940Y-9278940D02*
X18041940Y-9318940D01*
D13*
X16555000Y-9035000D02*
G75*
G03*
X16555000Y-9035000I-22500J0D01*
G01*
D11*
X16555000Y-9075000D02*
X16555000Y-8995000D01*
X16510000Y-9075000D02*
X16510000Y-8995000D01*
X16555000Y-8995000D02*
G75*
G03*
X16510000Y-8995000I-22500J0D01*
G01*
X16510000Y-9075000D02*
G75*
G03*
X16555000Y-9075000I22500J0D01*
G01*
D13*
X17270000Y-9035000D02*
G75*
G03*
X17270000Y-9035000I-22500J0D01*
G01*
D11*
X17225000Y-8995000D02*
X17225000Y-9075000D01*
X17270000Y-8995000D02*
X17270000Y-9075000D01*
X17225000Y-9075000D02*
G75*
G03*
X17270000Y-9075000I22500J0D01*
G01*
X17270000Y-8995000D02*
G75*
G03*
X17225000Y-8995000I-22500J0D01*
G01*
D10*
X15748000Y-10872000D02*
X15748000Y-10972000D01*
X15698000Y-10922000D02*
X15798000Y-10922000D01*
X15748000Y-11126000D02*
X15748000Y-11226000D01*
X15698000Y-11176000D02*
X15798000Y-11176000D01*
X15748000Y-11380000D02*
X15748000Y-11480000D01*
X15698000Y-11430000D02*
X15798000Y-11430000D01*
X15748000Y-11634000D02*
X15748000Y-11734000D01*
X15698000Y-11684000D02*
X15798000Y-11684000D01*
X15748000Y-11888000D02*
X15748000Y-11988000D01*
X15698000Y-11938000D02*
X15798000Y-11938000D01*
X15748000Y-12142000D02*
X15748000Y-12242000D01*
X15698000Y-12192000D02*
X15798000Y-12192000D01*
X15748000Y-12396000D02*
X15748000Y-12496000D01*
X15698000Y-12446000D02*
X15798000Y-12446000D01*
X15748000Y-12650000D02*
X15748000Y-12750000D01*
X15698000Y-12700000D02*
X15798000Y-12700000D01*
X15748000Y-12904000D02*
X15748000Y-13004000D01*
X15698000Y-12954000D02*
X15798000Y-12954000D01*
X15748000Y-13158000D02*
X15748000Y-13258000D01*
X15698000Y-13208000D02*
X15798000Y-13208000D01*
X15748000Y-13412000D02*
X15748000Y-13512000D01*
X15698000Y-13462000D02*
X15798000Y-13462000D01*
X15748000Y-13666000D02*
X15748000Y-13766000D01*
X15698000Y-13716000D02*
X15798000Y-13716000D01*
X18034000Y-10872000D02*
X18034000Y-10972000D01*
X17984000Y-10922000D02*
X18084000Y-10922000D01*
X18034000Y-11126000D02*
X18034000Y-11226000D01*
X17984000Y-11176000D02*
X18084000Y-11176000D01*
X18034000Y-11380000D02*
X18034000Y-11480000D01*
X17984000Y-11430000D02*
X18084000Y-11430000D01*
X18034000Y-11634000D02*
X18034000Y-11734000D01*
X17984000Y-11684000D02*
X18084000Y-11684000D01*
X18034000Y-11888000D02*
X18034000Y-11988000D01*
X17984000Y-11938000D02*
X18084000Y-11938000D01*
X18034000Y-12142000D02*
X18034000Y-12242000D01*
X17984000Y-12192000D02*
X18084000Y-12192000D01*
X18034000Y-12396000D02*
X18034000Y-12496000D01*
X17984000Y-12446000D02*
X18084000Y-12446000D01*
X18034000Y-12650000D02*
X18034000Y-12750000D01*
X17984000Y-12700000D02*
X18084000Y-12700000D01*
X18034000Y-12904000D02*
X18034000Y-13004000D01*
X17984000Y-12954000D02*
X18084000Y-12954000D01*
X18034000Y-13158000D02*
X18034000Y-13258000D01*
X17984000Y-13208000D02*
X18084000Y-13208000D01*
X18034000Y-13412000D02*
X18034000Y-13512000D01*
X17984000Y-13462000D02*
X18084000Y-13462000D01*
X18034000Y-13666000D02*
X18034000Y-13766000D01*
X17984000Y-13716000D02*
X18084000Y-13716000D01*
D11*
X15849419Y-14794376D02*
X15849419Y-14594376D01*
X15897038Y-14594376D01*
X15925609Y-14603900D01*
X15944657Y-14622948D01*
X15954181Y-14641995D01*
X15963705Y-14680090D01*
X15963705Y-14708662D01*
X15954181Y-14746757D01*
X15944657Y-14765805D01*
X15925609Y-14784852D01*
X15897038Y-14794376D01*
X15849419Y-14794376D01*
X16049419Y-14794376D02*
X16049419Y-14661043D01*
X16049419Y-14699138D02*
X16058943Y-14680090D01*
X16068467Y-14670567D01*
X16087514Y-14661043D01*
X16106562Y-14661043D01*
X16173228Y-14794376D02*
X16173228Y-14661043D01*
X16173228Y-14594376D02*
X16163705Y-14603900D01*
X16173228Y-14613424D01*
X16182752Y-14603900D01*
X16173228Y-14594376D01*
X16173228Y-14613424D01*
X16297038Y-14794376D02*
X16277990Y-14784852D01*
X16268467Y-14765805D01*
X16268467Y-14594376D01*
X16401800Y-14794376D02*
X16382752Y-14784852D01*
X16373228Y-14765805D01*
X16373228Y-14594376D01*
X16630371Y-14794376D02*
X16630371Y-14594376D01*
X16697038Y-14737233D01*
X16763705Y-14594376D01*
X16763705Y-14794376D01*
X16944657Y-14794376D02*
X16944657Y-14689614D01*
X16935133Y-14670567D01*
X16916086Y-14661043D01*
X16877990Y-14661043D01*
X16858943Y-14670567D01*
X16944657Y-14784852D02*
X16925610Y-14794376D01*
X16877990Y-14794376D01*
X16858943Y-14784852D01*
X16849419Y-14765805D01*
X16849419Y-14746757D01*
X16858943Y-14727709D01*
X16877990Y-14718186D01*
X16925610Y-14718186D01*
X16944657Y-14708662D01*
X17039895Y-14661043D02*
X17039895Y-14861043D01*
X17039895Y-14670567D02*
X17058943Y-14661043D01*
X17097038Y-14661043D01*
X17116086Y-14670567D01*
X17125610Y-14680090D01*
X17135133Y-14699138D01*
X17135133Y-14756281D01*
X17125610Y-14775328D01*
X17116086Y-14784852D01*
X17097038Y-14794376D01*
X17058943Y-14794376D01*
X17039895Y-14784852D01*
X17220848Y-14775328D02*
X17230371Y-14784852D01*
X17220848Y-14794376D01*
X17211324Y-14784852D01*
X17220848Y-14775328D01*
X17220848Y-14794376D01*
X17220848Y-14670567D02*
X17230371Y-14680090D01*
X17220848Y-14689614D01*
X17211324Y-14680090D01*
X17220848Y-14670567D01*
X17220848Y-14689614D01*
D12*
X15551800Y-15103900D02*
X15591800Y-15143900D01*
X15591800Y-15103900D02*
X15551800Y-15143900D01*
D11*
X15887514Y-15014376D02*
X15906562Y-15014376D01*
X15925609Y-15023900D01*
X15935133Y-15033424D01*
X15944657Y-15052471D01*
X15954181Y-15090567D01*
X15954181Y-15138186D01*
X15944657Y-15176281D01*
X15935133Y-15195328D01*
X15925609Y-15204852D01*
X15906562Y-15214376D01*
X15887514Y-15214376D01*
X15868467Y-15204852D01*
X15858943Y-15195328D01*
X15849419Y-15176281D01*
X15839895Y-15138186D01*
X15839895Y-15090567D01*
X15849419Y-15052471D01*
X15858943Y-15033424D01*
X15868467Y-15023900D01*
X15887514Y-15014376D01*
X16039895Y-15195328D02*
X16049419Y-15204852D01*
X16039895Y-15214376D01*
X16030371Y-15204852D01*
X16039895Y-15195328D01*
X16039895Y-15214376D01*
X16220848Y-15081043D02*
X16220848Y-15214376D01*
X16173228Y-15004852D02*
X16125609Y-15147709D01*
X16249419Y-15147709D01*
X16363705Y-15014376D02*
X16382752Y-15014376D01*
X16401800Y-15023900D01*
X16411324Y-15033424D01*
X16420848Y-15052471D01*
X16430371Y-15090567D01*
X16430371Y-15138186D01*
X16420848Y-15176281D01*
X16411324Y-15195328D01*
X16401800Y-15204852D01*
X16382752Y-15214376D01*
X16363705Y-15214376D01*
X16344657Y-15204852D01*
X16335133Y-15195328D01*
X16325609Y-15176281D01*
X16316086Y-15138186D01*
X16316086Y-15090567D01*
X16325609Y-15052471D01*
X16335133Y-15033424D01*
X16344657Y-15023900D01*
X16363705Y-15014376D01*
X16554181Y-15014376D02*
X16573228Y-15014376D01*
X16592276Y-15023900D01*
X16601800Y-15033424D01*
X16611324Y-15052471D01*
X16620848Y-15090567D01*
X16620848Y-15138186D01*
X16611324Y-15176281D01*
X16601800Y-15195328D01*
X16592276Y-15204852D01*
X16573228Y-15214376D01*
X16554181Y-15214376D01*
X16535133Y-15204852D01*
X16525609Y-15195328D01*
X16516086Y-15176281D01*
X16506562Y-15138186D01*
X16506562Y-15090567D01*
X16516086Y-15052471D01*
X16525609Y-15033424D01*
X16535133Y-15023900D01*
X16554181Y-15014376D01*
X16706562Y-15214376D02*
X16706562Y-15081043D01*
X16706562Y-15100090D02*
X16716086Y-15090567D01*
X16735133Y-15081043D01*
X16763705Y-15081043D01*
X16782752Y-15090567D01*
X16792276Y-15109614D01*
X16792276Y-15214376D01*
X16792276Y-15109614D02*
X16801800Y-15090567D01*
X16820848Y-15081043D01*
X16849419Y-15081043D01*
X16868467Y-15090567D01*
X16877990Y-15109614D01*
X16877990Y-15214376D01*
X16973229Y-15214376D02*
X16973229Y-15081043D01*
X16973229Y-15100090D02*
X16982752Y-15090567D01*
X17001800Y-15081043D01*
X17030371Y-15081043D01*
X17049419Y-15090567D01*
X17058943Y-15109614D01*
X17058943Y-15214376D01*
X17058943Y-15109614D02*
X17068467Y-15090567D01*
X17087514Y-15081043D01*
X17116086Y-15081043D01*
X17135133Y-15090567D01*
X17144657Y-15109614D01*
X17144657Y-15214376D01*
X17535133Y-15004852D02*
X17363705Y-15261995D01*
X17792276Y-15014376D02*
X17811324Y-15014376D01*
X17830371Y-15023900D01*
X17839895Y-15033424D01*
X17849419Y-15052471D01*
X17858943Y-15090567D01*
X17858943Y-15138186D01*
X17849419Y-15176281D01*
X17839895Y-15195328D01*
X17830371Y-15204852D01*
X17811324Y-15214376D01*
X17792276Y-15214376D01*
X17773229Y-15204852D01*
X17763705Y-15195328D01*
X17754181Y-15176281D01*
X17744657Y-15138186D01*
X17744657Y-15090567D01*
X17754181Y-15052471D01*
X17763705Y-15033424D01*
X17773229Y-15023900D01*
X17792276Y-15014376D01*
X17944657Y-15195328D02*
X17954181Y-15204852D01*
X17944657Y-15214376D01*
X17935133Y-15204852D01*
X17944657Y-15195328D01*
X17944657Y-15214376D01*
X18077990Y-15014376D02*
X18097038Y-15014376D01*
X18116086Y-15023900D01*
X18125610Y-15033424D01*
X18135133Y-15052471D01*
X18144657Y-15090567D01*
X18144657Y-15138186D01*
X18135133Y-15176281D01*
X18125610Y-15195328D01*
X18116086Y-15204852D01*
X18097038Y-15214376D01*
X18077990Y-15214376D01*
X18058943Y-15204852D01*
X18049419Y-15195328D01*
X18039895Y-15176281D01*
X18030371Y-15138186D01*
X18030371Y-15090567D01*
X18039895Y-15052471D01*
X18049419Y-15033424D01*
X18058943Y-15023900D01*
X18077990Y-15014376D01*
X18335133Y-15214376D02*
X18220848Y-15214376D01*
X18277990Y-15214376D02*
X18277990Y-15014376D01*
X18258943Y-15042948D01*
X18239895Y-15061995D01*
X18220848Y-15071519D01*
X18516086Y-15014376D02*
X18420848Y-15014376D01*
X18411324Y-15109614D01*
X18420848Y-15100090D01*
X18439895Y-15090567D01*
X18487514Y-15090567D01*
X18506562Y-15100090D01*
X18516086Y-15109614D01*
X18525610Y-15128662D01*
X18525610Y-15176281D01*
X18516086Y-15195328D01*
X18506562Y-15204852D01*
X18487514Y-15214376D01*
X18439895Y-15214376D01*
X18420848Y-15204852D01*
X18411324Y-15195328D01*
X18592276Y-15014376D02*
X18725610Y-15014376D01*
X18639895Y-15214376D01*
X18792276Y-15014376D02*
X18792276Y-15052471D01*
X18868467Y-15014376D02*
X18868467Y-15052471D01*
X19163705Y-15290567D02*
X19154181Y-15281043D01*
X19135133Y-15252471D01*
X19125610Y-15233424D01*
X19116086Y-15204852D01*
X19106562Y-15157233D01*
X19106562Y-15119138D01*
X19116086Y-15071519D01*
X19125610Y-15042948D01*
X19135133Y-15023900D01*
X19154181Y-14995328D01*
X19163705Y-14985805D01*
X19325610Y-15081043D02*
X19325610Y-15214376D01*
X19277990Y-15004852D02*
X19230371Y-15147709D01*
X19354181Y-15147709D01*
X19535133Y-15214376D02*
X19420848Y-15214376D01*
X19477990Y-15214376D02*
X19477990Y-15014376D01*
X19458943Y-15042948D01*
X19439895Y-15061995D01*
X19420848Y-15071519D01*
X19773229Y-15214376D02*
X19773229Y-15014376D01*
X19858943Y-15214376D02*
X19858943Y-15109614D01*
X19849419Y-15090567D01*
X19830371Y-15081043D01*
X19801800Y-15081043D01*
X19782752Y-15090567D01*
X19773229Y-15100090D01*
X19982752Y-15214376D02*
X19963705Y-15204852D01*
X19954181Y-15195328D01*
X19944657Y-15176281D01*
X19944657Y-15119138D01*
X19954181Y-15100090D01*
X19963705Y-15090567D01*
X19982752Y-15081043D01*
X20011324Y-15081043D01*
X20030371Y-15090567D01*
X20039895Y-15100090D01*
X20049419Y-15119138D01*
X20049419Y-15176281D01*
X20039895Y-15195328D01*
X20030371Y-15204852D01*
X20011324Y-15214376D01*
X19982752Y-15214376D01*
X20163705Y-15214376D02*
X20144657Y-15204852D01*
X20135133Y-15185805D01*
X20135133Y-15014376D01*
X20316086Y-15204852D02*
X20297038Y-15214376D01*
X20258943Y-15214376D01*
X20239895Y-15204852D01*
X20230371Y-15185805D01*
X20230371Y-15109614D01*
X20239895Y-15090567D01*
X20258943Y-15081043D01*
X20297038Y-15081043D01*
X20316086Y-15090567D01*
X20325610Y-15109614D01*
X20325610Y-15128662D01*
X20230371Y-15147709D01*
X20401800Y-15204852D02*
X20420848Y-15214376D01*
X20458943Y-15214376D01*
X20477990Y-15204852D01*
X20487514Y-15185805D01*
X20487514Y-15176281D01*
X20477990Y-15157233D01*
X20458943Y-15147709D01*
X20430371Y-15147709D01*
X20411324Y-15138186D01*
X20401800Y-15119138D01*
X20401800Y-15109614D01*
X20411324Y-15090567D01*
X20430371Y-15081043D01*
X20458943Y-15081043D01*
X20477990Y-15090567D01*
X20554181Y-15290567D02*
X20563705Y-15281043D01*
X20582752Y-15252471D01*
X20592276Y-15233424D01*
X20601800Y-15204852D01*
X20611324Y-15157233D01*
X20611324Y-15119138D01*
X20601800Y-15071519D01*
X20592276Y-15042948D01*
X20582752Y-15023900D01*
X20563705Y-14995328D01*
X20554181Y-14985805D01*
D13*
X15591800Y-15387900D02*
G75*
G03*
X15591800Y-15387900I-22500J0D01*
G01*
D11*
X15887514Y-15278376D02*
X15906562Y-15278376D01*
X15925609Y-15287900D01*
X15935133Y-15297424D01*
X15944657Y-15316471D01*
X15954181Y-15354567D01*
X15954181Y-15402186D01*
X15944657Y-15440281D01*
X15935133Y-15459328D01*
X15925609Y-15468852D01*
X15906562Y-15478376D01*
X15887514Y-15478376D01*
X15868467Y-15468852D01*
X15858943Y-15459328D01*
X15849419Y-15440281D01*
X15839895Y-15402186D01*
X15839895Y-15354567D01*
X15849419Y-15316471D01*
X15858943Y-15297424D01*
X15868467Y-15287900D01*
X15887514Y-15278376D01*
X16039895Y-15459328D02*
X16049419Y-15468852D01*
X16039895Y-15478376D01*
X16030371Y-15468852D01*
X16039895Y-15459328D01*
X16039895Y-15478376D01*
X16220848Y-15345043D02*
X16220848Y-15478376D01*
X16173228Y-15268852D02*
X16125609Y-15411709D01*
X16249419Y-15411709D01*
X16420848Y-15278376D02*
X16325609Y-15278376D01*
X16316086Y-15373614D01*
X16325609Y-15364090D01*
X16344657Y-15354567D01*
X16392276Y-15354567D01*
X16411324Y-15364090D01*
X16420848Y-15373614D01*
X16430371Y-15392662D01*
X16430371Y-15440281D01*
X16420848Y-15459328D01*
X16411324Y-15468852D01*
X16392276Y-15478376D01*
X16344657Y-15478376D01*
X16325609Y-15468852D01*
X16316086Y-15459328D01*
X16554181Y-15278376D02*
X16573228Y-15278376D01*
X16592276Y-15287900D01*
X16601800Y-15297424D01*
X16611324Y-15316471D01*
X16620848Y-15354567D01*
X16620848Y-15402186D01*
X16611324Y-15440281D01*
X16601800Y-15459328D01*
X16592276Y-15468852D01*
X16573228Y-15478376D01*
X16554181Y-15478376D01*
X16535133Y-15468852D01*
X16525609Y-15459328D01*
X16516086Y-15440281D01*
X16506562Y-15402186D01*
X16506562Y-15354567D01*
X16516086Y-15316471D01*
X16525609Y-15297424D01*
X16535133Y-15287900D01*
X16554181Y-15278376D01*
X16706562Y-15478376D02*
X16706562Y-15345043D01*
X16706562Y-15364090D02*
X16716086Y-15354567D01*
X16735133Y-15345043D01*
X16763705Y-15345043D01*
X16782752Y-15354567D01*
X16792276Y-15373614D01*
X16792276Y-15478376D01*
X16792276Y-15373614D02*
X16801800Y-15354567D01*
X16820848Y-15345043D01*
X16849419Y-15345043D01*
X16868467Y-15354567D01*
X16877990Y-15373614D01*
X16877990Y-15478376D01*
X16973229Y-15478376D02*
X16973229Y-15345043D01*
X16973229Y-15364090D02*
X16982752Y-15354567D01*
X17001800Y-15345043D01*
X17030371Y-15345043D01*
X17049419Y-15354567D01*
X17058943Y-15373614D01*
X17058943Y-15478376D01*
X17058943Y-15373614D02*
X17068467Y-15354567D01*
X17087514Y-15345043D01*
X17116086Y-15345043D01*
X17135133Y-15354567D01*
X17144657Y-15373614D01*
X17144657Y-15478376D01*
X17535133Y-15268852D02*
X17363705Y-15525995D01*
X17792276Y-15278376D02*
X17811324Y-15278376D01*
X17830371Y-15287900D01*
X17839895Y-15297424D01*
X17849419Y-15316471D01*
X17858943Y-15354567D01*
X17858943Y-15402186D01*
X17849419Y-15440281D01*
X17839895Y-15459328D01*
X17830371Y-15468852D01*
X17811324Y-15478376D01*
X17792276Y-15478376D01*
X17773229Y-15468852D01*
X17763705Y-15459328D01*
X17754181Y-15440281D01*
X17744657Y-15402186D01*
X17744657Y-15354567D01*
X17754181Y-15316471D01*
X17763705Y-15297424D01*
X17773229Y-15287900D01*
X17792276Y-15278376D01*
X17944657Y-15459328D02*
X17954181Y-15468852D01*
X17944657Y-15478376D01*
X17935133Y-15468852D01*
X17944657Y-15459328D01*
X17944657Y-15478376D01*
X18077990Y-15278376D02*
X18097038Y-15278376D01*
X18116086Y-15287900D01*
X18125610Y-15297424D01*
X18135133Y-15316471D01*
X18144657Y-15354567D01*
X18144657Y-15402186D01*
X18135133Y-15440281D01*
X18125610Y-15459328D01*
X18116086Y-15468852D01*
X18097038Y-15478376D01*
X18077990Y-15478376D01*
X18058943Y-15468852D01*
X18049419Y-15459328D01*
X18039895Y-15440281D01*
X18030371Y-15402186D01*
X18030371Y-15354567D01*
X18039895Y-15316471D01*
X18049419Y-15297424D01*
X18058943Y-15287900D01*
X18077990Y-15278376D01*
X18335133Y-15478376D02*
X18220848Y-15478376D01*
X18277990Y-15478376D02*
X18277990Y-15278376D01*
X18258943Y-15306948D01*
X18239895Y-15325995D01*
X18220848Y-15335519D01*
X18401800Y-15278376D02*
X18535133Y-15278376D01*
X18449419Y-15478376D01*
X18592276Y-15278376D02*
X18725610Y-15278376D01*
X18639895Y-15478376D01*
X18792276Y-15278376D02*
X18792276Y-15316471D01*
X18868467Y-15278376D02*
X18868467Y-15316471D01*
X19163705Y-15554567D02*
X19154181Y-15545043D01*
X19135133Y-15516471D01*
X19125610Y-15497424D01*
X19116086Y-15468852D01*
X19106562Y-15421233D01*
X19106562Y-15383138D01*
X19116086Y-15335519D01*
X19125610Y-15306948D01*
X19135133Y-15287900D01*
X19154181Y-15259328D01*
X19163705Y-15249805D01*
X19277990Y-15278376D02*
X19297038Y-15278376D01*
X19316086Y-15287900D01*
X19325610Y-15297424D01*
X19335133Y-15316471D01*
X19344657Y-15354567D01*
X19344657Y-15402186D01*
X19335133Y-15440281D01*
X19325610Y-15459328D01*
X19316086Y-15468852D01*
X19297038Y-15478376D01*
X19277990Y-15478376D01*
X19258943Y-15468852D01*
X19249419Y-15459328D01*
X19239895Y-15440281D01*
X19230371Y-15402186D01*
X19230371Y-15354567D01*
X19239895Y-15316471D01*
X19249419Y-15297424D01*
X19258943Y-15287900D01*
X19277990Y-15278376D01*
X19582752Y-15478376D02*
X19582752Y-15278376D01*
X19668467Y-15478376D02*
X19668467Y-15373614D01*
X19658943Y-15354567D01*
X19639895Y-15345043D01*
X19611324Y-15345043D01*
X19592276Y-15354567D01*
X19582752Y-15364090D01*
X19792276Y-15478376D02*
X19773229Y-15468852D01*
X19763705Y-15459328D01*
X19754181Y-15440281D01*
X19754181Y-15383138D01*
X19763705Y-15364090D01*
X19773229Y-15354567D01*
X19792276Y-15345043D01*
X19820848Y-15345043D01*
X19839895Y-15354567D01*
X19849419Y-15364090D01*
X19858943Y-15383138D01*
X19858943Y-15440281D01*
X19849419Y-15459328D01*
X19839895Y-15468852D01*
X19820848Y-15478376D01*
X19792276Y-15478376D01*
X19973229Y-15478376D02*
X19954181Y-15468852D01*
X19944657Y-15449805D01*
X19944657Y-15278376D01*
X20125610Y-15468852D02*
X20106562Y-15478376D01*
X20068467Y-15478376D01*
X20049419Y-15468852D01*
X20039895Y-15449805D01*
X20039895Y-15373614D01*
X20049419Y-15354567D01*
X20068467Y-15345043D01*
X20106562Y-15345043D01*
X20125610Y-15354567D01*
X20135133Y-15373614D01*
X20135133Y-15392662D01*
X20039895Y-15411709D01*
X20211324Y-15468852D02*
X20230371Y-15478376D01*
X20268467Y-15478376D01*
X20287514Y-15468852D01*
X20297038Y-15449805D01*
X20297038Y-15440281D01*
X20287514Y-15421233D01*
X20268467Y-15411709D01*
X20239895Y-15411709D01*
X20220848Y-15402186D01*
X20211324Y-15383138D01*
X20211324Y-15373614D01*
X20220848Y-15354567D01*
X20239895Y-15345043D01*
X20268467Y-15345043D01*
X20287514Y-15354567D01*
X20535133Y-15402186D02*
X20687514Y-15402186D01*
X20611324Y-15478376D02*
X20611324Y-15325995D01*
X20925610Y-15297424D02*
X20935133Y-15287900D01*
X20954181Y-15278376D01*
X21001800Y-15278376D01*
X21020848Y-15287900D01*
X21030371Y-15297424D01*
X21039895Y-15316471D01*
X21039895Y-15335519D01*
X21030371Y-15364090D01*
X20916086Y-15478376D01*
X21039895Y-15478376D01*
X21268467Y-15468852D02*
X21287514Y-15478376D01*
X21325610Y-15478376D01*
X21344657Y-15468852D01*
X21354181Y-15449805D01*
X21354181Y-15440281D01*
X21344657Y-15421233D01*
X21325610Y-15411709D01*
X21297038Y-15411709D01*
X21277990Y-15402186D01*
X21268467Y-15383138D01*
X21268467Y-15373614D01*
X21277990Y-15354567D01*
X21297038Y-15345043D01*
X21325610Y-15345043D01*
X21344657Y-15354567D01*
X21468467Y-15478376D02*
X21449419Y-15468852D01*
X21439895Y-15449805D01*
X21439895Y-15278376D01*
X21573229Y-15478376D02*
X21554181Y-15468852D01*
X21544657Y-15459328D01*
X21535133Y-15440281D01*
X21535133Y-15383138D01*
X21544657Y-15364090D01*
X21554181Y-15354567D01*
X21573229Y-15345043D01*
X21601800Y-15345043D01*
X21620848Y-15354567D01*
X21630371Y-15364090D01*
X21639895Y-15383138D01*
X21639895Y-15440281D01*
X21630371Y-15459328D01*
X21620848Y-15468852D01*
X21601800Y-15478376D01*
X21573229Y-15478376D01*
X21697038Y-15345043D02*
X21773229Y-15345043D01*
X21725610Y-15278376D02*
X21725610Y-15449805D01*
X21735133Y-15468852D01*
X21754181Y-15478376D01*
X21773229Y-15478376D01*
X21830371Y-15468852D02*
X21849419Y-15478376D01*
X21887514Y-15478376D01*
X21906562Y-15468852D01*
X21916086Y-15449805D01*
X21916086Y-15440281D01*
X21906562Y-15421233D01*
X21887514Y-15411709D01*
X21858943Y-15411709D01*
X21839895Y-15402186D01*
X21830371Y-15383138D01*
X21830371Y-15373614D01*
X21839895Y-15354567D01*
X21858943Y-15345043D01*
X21887514Y-15345043D01*
X21906562Y-15354567D01*
X21982752Y-15554567D02*
X21992276Y-15545043D01*
X22011324Y-15516471D01*
X22020848Y-15497424D01*
X22030371Y-15468852D01*
X22039895Y-15421233D01*
X22039895Y-15383138D01*
X22030371Y-15335519D01*
X22020848Y-15306948D01*
X22011324Y-15287900D01*
X21992276Y-15259328D01*
X21982752Y-15249805D01*
D10*
X15541800Y-15601900D02*
X15541800Y-15701900D01*
X15491800Y-15651900D02*
X15591800Y-15651900D01*
D11*
X15954181Y-15742376D02*
X15839895Y-15742376D01*
X15897038Y-15742376D02*
X15897038Y-15542376D01*
X15877990Y-15570948D01*
X15858943Y-15589995D01*
X15839895Y-15599519D01*
X16039895Y-15723328D02*
X16049419Y-15732852D01*
X16039895Y-15742376D01*
X16030371Y-15732852D01*
X16039895Y-15723328D01*
X16039895Y-15742376D01*
X16173228Y-15542376D02*
X16192276Y-15542376D01*
X16211324Y-15551900D01*
X16220848Y-15561424D01*
X16230371Y-15580471D01*
X16239895Y-15618567D01*
X16239895Y-15666186D01*
X16230371Y-15704281D01*
X16220848Y-15723328D01*
X16211324Y-15732852D01*
X16192276Y-15742376D01*
X16173228Y-15742376D01*
X16154181Y-15732852D01*
X16144657Y-15723328D01*
X16135133Y-15704281D01*
X16125609Y-15666186D01*
X16125609Y-15618567D01*
X16135133Y-15580471D01*
X16144657Y-15561424D01*
X16154181Y-15551900D01*
X16173228Y-15542376D01*
X16363705Y-15542376D02*
X16382752Y-15542376D01*
X16401800Y-15551900D01*
X16411324Y-15561424D01*
X16420848Y-15580471D01*
X16430371Y-15618567D01*
X16430371Y-15666186D01*
X16420848Y-15704281D01*
X16411324Y-15723328D01*
X16401800Y-15732852D01*
X16382752Y-15742376D01*
X16363705Y-15742376D01*
X16344657Y-15732852D01*
X16335133Y-15723328D01*
X16325609Y-15704281D01*
X16316086Y-15666186D01*
X16316086Y-15618567D01*
X16325609Y-15580471D01*
X16335133Y-15561424D01*
X16344657Y-15551900D01*
X16363705Y-15542376D01*
X16554181Y-15542376D02*
X16573228Y-15542376D01*
X16592276Y-15551900D01*
X16601800Y-15561424D01*
X16611324Y-15580471D01*
X16620848Y-15618567D01*
X16620848Y-15666186D01*
X16611324Y-15704281D01*
X16601800Y-15723328D01*
X16592276Y-15732852D01*
X16573228Y-15742376D01*
X16554181Y-15742376D01*
X16535133Y-15732852D01*
X16525609Y-15723328D01*
X16516086Y-15704281D01*
X16506562Y-15666186D01*
X16506562Y-15618567D01*
X16516086Y-15580471D01*
X16525609Y-15561424D01*
X16535133Y-15551900D01*
X16554181Y-15542376D01*
X16706562Y-15742376D02*
X16706562Y-15609043D01*
X16706562Y-15628090D02*
X16716086Y-15618567D01*
X16735133Y-15609043D01*
X16763705Y-15609043D01*
X16782752Y-15618567D01*
X16792276Y-15637614D01*
X16792276Y-15742376D01*
X16792276Y-15637614D02*
X16801800Y-15618567D01*
X16820848Y-15609043D01*
X16849419Y-15609043D01*
X16868467Y-15618567D01*
X16877990Y-15637614D01*
X16877990Y-15742376D01*
X16973229Y-15742376D02*
X16973229Y-15609043D01*
X16973229Y-15628090D02*
X16982752Y-15618567D01*
X17001800Y-15609043D01*
X17030371Y-15609043D01*
X17049419Y-15618567D01*
X17058943Y-15637614D01*
X17058943Y-15742376D01*
X17058943Y-15637614D02*
X17068467Y-15618567D01*
X17087514Y-15609043D01*
X17116086Y-15609043D01*
X17135133Y-15618567D01*
X17144657Y-15637614D01*
X17144657Y-15742376D01*
X17535133Y-15532852D02*
X17363705Y-15789995D01*
X17792276Y-15542376D02*
X17811324Y-15542376D01*
X17830371Y-15551900D01*
X17839895Y-15561424D01*
X17849419Y-15580471D01*
X17858943Y-15618567D01*
X17858943Y-15666186D01*
X17849419Y-15704281D01*
X17839895Y-15723328D01*
X17830371Y-15732852D01*
X17811324Y-15742376D01*
X17792276Y-15742376D01*
X17773229Y-15732852D01*
X17763705Y-15723328D01*
X17754181Y-15704281D01*
X17744657Y-15666186D01*
X17744657Y-15618567D01*
X17754181Y-15580471D01*
X17763705Y-15561424D01*
X17773229Y-15551900D01*
X17792276Y-15542376D01*
X17944657Y-15723328D02*
X17954181Y-15732852D01*
X17944657Y-15742376D01*
X17935133Y-15732852D01*
X17944657Y-15723328D01*
X17944657Y-15742376D01*
X18077990Y-15542376D02*
X18097038Y-15542376D01*
X18116086Y-15551900D01*
X18125610Y-15561424D01*
X18135133Y-15580471D01*
X18144657Y-15618567D01*
X18144657Y-15666186D01*
X18135133Y-15704281D01*
X18125610Y-15723328D01*
X18116086Y-15732852D01*
X18097038Y-15742376D01*
X18077990Y-15742376D01*
X18058943Y-15732852D01*
X18049419Y-15723328D01*
X18039895Y-15704281D01*
X18030371Y-15666186D01*
X18030371Y-15618567D01*
X18039895Y-15580471D01*
X18049419Y-15561424D01*
X18058943Y-15551900D01*
X18077990Y-15542376D01*
X18211324Y-15542376D02*
X18335133Y-15542376D01*
X18268467Y-15618567D01*
X18297038Y-15618567D01*
X18316086Y-15628090D01*
X18325610Y-15637614D01*
X18335133Y-15656662D01*
X18335133Y-15704281D01*
X18325610Y-15723328D01*
X18316086Y-15732852D01*
X18297038Y-15742376D01*
X18239895Y-15742376D01*
X18220848Y-15732852D01*
X18211324Y-15723328D01*
X18430371Y-15742376D02*
X18468467Y-15742376D01*
X18487514Y-15732852D01*
X18497038Y-15723328D01*
X18516086Y-15694757D01*
X18525610Y-15656662D01*
X18525610Y-15580471D01*
X18516086Y-15561424D01*
X18506562Y-15551900D01*
X18487514Y-15542376D01*
X18449419Y-15542376D01*
X18430371Y-15551900D01*
X18420848Y-15561424D01*
X18411324Y-15580471D01*
X18411324Y-15628090D01*
X18420848Y-15647138D01*
X18430371Y-15656662D01*
X18449419Y-15666186D01*
X18487514Y-15666186D01*
X18506562Y-15656662D01*
X18516086Y-15647138D01*
X18525610Y-15628090D01*
X18697038Y-15609043D02*
X18697038Y-15742376D01*
X18649419Y-15532852D02*
X18601800Y-15675709D01*
X18725610Y-15675709D01*
X18792276Y-15542376D02*
X18792276Y-15580471D01*
X18868467Y-15542376D02*
X18868467Y-15580471D01*
X19163705Y-15818567D02*
X19154181Y-15809043D01*
X19135133Y-15780471D01*
X19125610Y-15761424D01*
X19116086Y-15732852D01*
X19106562Y-15685233D01*
X19106562Y-15647138D01*
X19116086Y-15599519D01*
X19125610Y-15570948D01*
X19135133Y-15551900D01*
X19154181Y-15523328D01*
X19163705Y-15513805D01*
X19230371Y-15561424D02*
X19239895Y-15551900D01*
X19258943Y-15542376D01*
X19306562Y-15542376D01*
X19325610Y-15551900D01*
X19335133Y-15561424D01*
X19344657Y-15580471D01*
X19344657Y-15599519D01*
X19335133Y-15628090D01*
X19220848Y-15742376D01*
X19344657Y-15742376D01*
X19516086Y-15609043D02*
X19516086Y-15742376D01*
X19468467Y-15532852D02*
X19420848Y-15675709D01*
X19544657Y-15675709D01*
X19773229Y-15742376D02*
X19773229Y-15542376D01*
X19858943Y-15742376D02*
X19858943Y-15637614D01*
X19849419Y-15618567D01*
X19830371Y-15609043D01*
X19801800Y-15609043D01*
X19782752Y-15618567D01*
X19773229Y-15628090D01*
X19982752Y-15742376D02*
X19963705Y-15732852D01*
X19954181Y-15723328D01*
X19944657Y-15704281D01*
X19944657Y-15647138D01*
X19954181Y-15628090D01*
X19963705Y-15618567D01*
X19982752Y-15609043D01*
X20011324Y-15609043D01*
X20030371Y-15618567D01*
X20039895Y-15628090D01*
X20049419Y-15647138D01*
X20049419Y-15704281D01*
X20039895Y-15723328D01*
X20030371Y-15732852D01*
X20011324Y-15742376D01*
X19982752Y-15742376D01*
X20163705Y-15742376D02*
X20144657Y-15732852D01*
X20135133Y-15713805D01*
X20135133Y-15542376D01*
X20316086Y-15732852D02*
X20297038Y-15742376D01*
X20258943Y-15742376D01*
X20239895Y-15732852D01*
X20230371Y-15713805D01*
X20230371Y-15637614D01*
X20239895Y-15618567D01*
X20258943Y-15609043D01*
X20297038Y-15609043D01*
X20316086Y-15618567D01*
X20325610Y-15637614D01*
X20325610Y-15656662D01*
X20230371Y-15675709D01*
X20401800Y-15732852D02*
X20420848Y-15742376D01*
X20458943Y-15742376D01*
X20477990Y-15732852D01*
X20487514Y-15713805D01*
X20487514Y-15704281D01*
X20477990Y-15685233D01*
X20458943Y-15675709D01*
X20430371Y-15675709D01*
X20411324Y-15666186D01*
X20401800Y-15647138D01*
X20401800Y-15637614D01*
X20411324Y-15618567D01*
X20430371Y-15609043D01*
X20458943Y-15609043D01*
X20477990Y-15618567D01*
X20554181Y-15818567D02*
X20563705Y-15809043D01*
X20582752Y-15780471D01*
X20592276Y-15761424D01*
X20601800Y-15732852D01*
X20611324Y-15685233D01*
X20611324Y-15647138D01*
X20601800Y-15599519D01*
X20592276Y-15570948D01*
X20582752Y-15551900D01*
X20563705Y-15523328D01*
X20554181Y-15513805D01*
M02*
